<?xml version="1.0" standalone="no"?>
<!DOCTYPE svg PUBLIC "-//W3C//DTD SVG 20010904//EN"
 "http://www.w3.org/TR/2001/REC-SVG-20010904/DTD/svg10.dtd">
<svg version="1.0" xmlns="http://www.w3.org/2000/svg"
 width="500.000000pt" height="500.000000pt" viewBox="0 0 500.000000 500.000000"
 preserveAspectRatio="xMidYMid meet">
<metadata>
Created by potrace 1.16, written by Peter Selinger 2001-2019
</metadata>
<g transform="translate(0.000000,500.000000) scale(0.100000,-0.100000)"
fill="#000000" stroke="none">
<path d="M3120 4400 c0 -55 -3 -72 -16 -77 -12 -4 -13 -8 -3 -13 6 -5 9 -15 6
-23 -7 -19 -115 -78 -120 -64 -1 5 -25 -52 -52 -127 -27 -75 -53 -136 -57
-136 -5 0 -6 -10 -3 -21 5 -15 4 -19 -4 -15 -7 5 -11 -2 -11 -16 -1 -34 -50
89 -50 125 0 48 -7 29 -29 -77 -21 -106 -24 -112 -41 -101 -8 5 -8 10 0 20 6
8 10 22 8 32 -1 10 1 24 6 31 4 7 3 19 -4 27 -14 17 -30 20 -30 5 0 -5 7 -10
15 -10 8 0 15 -4 15 -10 0 -12 -30 -13 -49 -1 -8 5 -10 14 -6 21 5 9 4 11 -3
6 -8 -5 -12 2 -12 20 0 36 -6 28 -13 -18 -4 -28 -2 -36 8 -32 20 8 23 -8 9
-36 -12 -22 -14 -23 -15 -5 0 11 -3 14 -6 8 -2 -7 -12 -13 -21 -14 -11 0 -12
-2 -4 -6 6 -2 12 -10 12 -17 0 -7 25 -18 58 -25 77 -18 240 -70 246 -80 4 -7
-48 -183 -60 -203 -3 -4 -14 -4 -24 2 -26 14 -12 66 16 62 15 -2 16 -1 5 6
-11 8 -11 17 3 58 9 26 15 49 13 50 -5 6 -152 44 -167 44 -8 -1 -1 -7 17 -15
30 -13 31 -15 23 -47 -6 -18 -10 -35 -10 -37 0 -2 -14 -1 -32 3 -30 6 -31 5
-13 -8 17 -12 18 -17 5 -42 -7 -16 -13 -32 -12 -36 1 -5 -7 -8 -17 -8 -11 0
-23 -4 -26 -10 -3 -5 0 -10 8 -10 56 0 319 -112 430 -183 163 -105 350 -343
407 -519 l12 -38 172 0 c196 0 213 -6 236 -76 12 -35 8 -292 -5 -354 -3 -14
-8 -117 -12 -229 -6 -192 -8 -205 -29 -230 -21 -24 -29 -26 -116 -29 -53 -2
-123 3 -163 11 -70 14 -69 14 87 10 l157 -5 27 27 27 27 -6 182 c-4 99 -8 251
-9 336 -1 85 -3 139 -5 119 -4 -35 -5 -35 -49 -34 -50 2 -74 15 -26 15 38 0
62 30 62 81 0 66 -61 90 -129 48 -42 -25 -51 -18 -18 15 21 21 36 26 76 26 42
0 53 -4 70 -26 15 -19 21 -22 21 -11 0 9 -10 25 -22 37 -18 17 -36 20 -112 22
-50 0 -131 2 -180 4 -49 1 -95 0 -102 -3 -10 -4 -14 -25 -14 -73 0 -65 -1 -68
-27 -75 -28 -7 -1778 -14 -1995 -7 -94 3 -118 6 -118 18 0 12 51 14 338 15
l337 0 30 47 c59 92 221 205 305 214 34 3 35 2 46 -43 24 -97 24 -134 0 -51
-14 46 -28 87 -32 90 -6 7 -4 -8 12 -88 6 -25 3 -30 -13 -30 -14 0 -24 11 -33
40 -7 22 -17 40 -22 40 -11 0 -10 -11 7 -40 20 -35 19 -37 -17 -56 -18 -9 -43
-25 -55 -36 l-22 -20 -20 40 c-22 43 -41 62 -41 41 0 -7 -7 -20 -16 -30 -15
-17 -13 -21 22 -65 29 -36 34 -44 17 -35 -13 6 -33 27 -46 47 l-24 35 -15 -23
c-9 -13 -27 -35 -40 -49 l-25 -27 181 -7 c100 -3 417 -3 706 2 l525 8 -1 65
c-1 70 5 80 49 80 15 0 27 6 27 13 0 17 -75 172 -101 209 l-21 29 -45 -26
c-24 -15 -47 -24 -50 -21 -4 3 -4 7 -2 9 46 32 79 60 79 66 0 25 -247 261
-272 261 -15 0 -168 -184 -168 -201 0 -27 43 -68 79 -75 26 -5 29 -9 21 -25
-6 -10 -10 -29 -10 -43 0 -29 -19 -76 -32 -76 -12 0 -10 14 7 36 17 22 20 54
5 54 -5 0 -10 -7 -10 -15 0 -8 -4 -15 -10 -15 -5 0 -7 7 -3 16 6 17 -33 64
-55 64 -8 0 -20 -6 -26 -14 -9 -12 -21 -8 -70 25 -33 21 -79 46 -103 55 -38
15 -60 44 -33 44 16 0 108 -48 115 -60 3 -5 14 -14 24 -20 16 -8 30 7 104 118
119 179 115 168 70 191 -55 27 -113 51 -113 45 0 -3 29 -19 65 -36 63 -29 78
-48 43 -54 -9 -1 -18 7 -21 17 -5 19 -37 27 -37 9 0 -10 41 -35 53 -32 12 3 8
-7 -15 -38 l-21 -29 -27 19 c-42 30 -76 40 -89 27 -18 -18 -13 -28 12 -22 13
3 36 -3 59 -17 l36 -23 -21 -30 c-23 -31 -61 -43 -82 -25 -10 8 -21 1 -44 -27
-17 -21 -31 -35 -31 -31 0 6 82 257 95 289 4 12 -5 20 -37 32 -91 33 -82 39
-108 -75 -12 -57 -27 -110 -32 -118 -12 -20 -1 85 17 165 8 32 13 60 12 61 -1
1 -22 4 -47 7 -43 5 -44 5 -11 -6 37 -12 37 -13 10 -137 -12 -58 -41 -70 -55
-22 l-7 27 -6 -29 c-3 -16 -11 -31 -17 -33 -17 -6 -27 29 -12 39 8 5 0 8 -22
6 -33 -3 -35 -5 -38 -41 -3 -30 -7 -37 -20 -35 -12 2 -18 15 -20 41 -3 34 -6
37 -33 37 -21 0 -29 -5 -29 -17 0 -15 2 -16 10 -3 9 13 11 13 20 0 7 -11 4
-16 -13 -21 -30 -8 -37 -2 -37 27 0 14 -4 22 -10 19 -5 -3 -10 -15 -10 -26 0
-12 -7 -19 -18 -19 -15 0 -21 15 -33 78 -7 42 -14 85 -13 95 0 10 -7 17 -18
17 -14 0 -18 -5 -14 -17 17 -55 36 -153 35 -183 0 -25 -9 -2 -30 75 -17 60
-32 111 -34 113 -3 3 -115 -35 -121 -41 -3 -3 55 -175 95 -282 11 -30 11 -30
-7 -9 -18 21 -19 21 -54 3 l-36 -18 -41 59 -41 60 56 31 c30 17 53 33 50 36
-2 3 -14 0 -25 -7 -12 -6 -27 -8 -33 -4 -7 5 -8 3 -3 -6 5 -8 3 -11 -6 -8 -8
3 -19 -2 -25 -10 -10 -14 -34 -10 -34 6 0 8 62 37 73 34 4 -1 7 5 7 13 0 13
-9 11 -45 -9 l-45 -25 -16 31 c-13 25 -14 32 -2 39 7 5 17 9 22 9 5 0 7 2 4 5
-6 7 -58 -15 -58 -24 1 -13 158 -282 174 -299 3 -2 24 9 48 26 51 34 103 62
118 62 25 0 6 -27 -33 -44 -23 -11 -63 -35 -90 -53 -48 -34 -74 -43 -61 -20 6
9 5 9 -8 0 -22 -19 -31 -3 -11 21 10 11 -2 4 -26 -17 -24 -20 -47 -34 -51 -32
-5 3 -11 -2 -14 -11 -3 -8 -10 -13 -15 -10 -5 4 -12 -2 -15 -11 -3 -10 -4 -6
-2 9 2 16 -3 29 -10 32 -23 9 -16 24 15 31 16 3 41 17 56 31 35 32 28 64 -24
119 -21 22 -55 61 -75 87 l-37 47 -47 -34 c-54 -38 -232 -217 -232 -232 0 -14
86 -84 93 -77 3 3 10 3 16 -1 8 -4 7 -13 -1 -28 -7 -12 -13 -28 -14 -36 -2 -7
-8 -19 -15 -25 -9 -8 -9 -5 0 14 12 24 11 24 -4 5 -8 -11 -13 -25 -10 -33 2
-7 1 -11 -4 -7 -5 3 -26 -31 -47 -74 -21 -44 -41 -78 -45 -75 -4 2 -10 -4 -12
-13 -4 -14 -5 -12 -6 5 -1 25 68 170 105 219 27 35 29 43 13 43 -6 0 -26 12
-45 27 -35 26 -35 26 -54 7 -10 -10 -41 -64 -69 -119 l-50 -100 27 -5 c22 -4
28 -11 30 -39 4 -45 -6 -103 -18 -96 -4 3 -11 -1 -13 -7 -3 -7 -6 13 -6 45 -1
38 -5 57 -13 58 -7 1 -84 0 -171 0 -164 -2 -207 -10 -221 -46 -3 -9 -6 -187
-6 -394 0 -453 -12 -416 139 -416 63 0 101 -4 109 -12 11 -11 -4 -13 -75 -12
-160 1 -195 29 -195 155 0 44 -3 73 -5 67 -18 -48 -22 22 -20 305 1 236 5 323
15 339 26 46 59 53 240 53 l169 0 13 43 c45 152 221 382 376 493 80 57 264
146 373 179 47 14 95 30 106 35 19 8 19 8 -5 18 -14 6 -19 11 -12 11 6 1 12 5
12 10 0 6 -12 6 -29 1 -25 -7 -30 -5 -40 18 -14 30 -7 39 36 48 22 4 32 2 36
-7 7 -22 -3 33 -14 74 -6 24 -16 37 -26 37 -33 0 -203 -54 -202 -64 0 -6 13
-42 28 -81 16 -38 27 -73 24 -77 -9 -17 -44 -7 -52 15 -7 16 -5 26 7 36 16 13
16 13 0 8 -14 -5 -21 7 -39 63 -13 38 -21 71 -18 73 12 11 230 78 271 83 38 5
48 11 53 31 3 15 10 21 18 16 9 -5 9 -3 1 8 -7 8 -14 23 -17 34 -3 13 -5 9 -6
-12 -2 -57 -18 -36 -34 45 l-15 77 6 -69 c3 -47 2 -67 -6 -63 -5 4 -8 16 -5
27 6 23 -12 44 -47 53 -22 5 -23 4 -8 -7 16 -12 16 -14 -3 -29 -12 -11 -17
-22 -12 -30 12 -19 13 -76 2 -83 -6 -3 -18 1 -27 8 -26 23 -46 33 -38 20 4 -7
2 -12 -3 -12 -16 0 -14 18 9 80 11 30 19 66 19 80 -1 20 -3 18 -9 -10 -4 -19
-16 -56 -27 -82 l-19 -48 -28 85 c-16 51 -32 83 -38 79 -6 -4 -8 2 -3 17 5 20
4 21 -5 9 -10 -12 -11 -11 -7 8 3 14 1 20 -6 15 -6 -4 -8 2 -4 16 4 18 2 21
-13 16 -24 -8 -130 40 -130 59 0 8 -3 21 -6 29 -4 10 17 4 60 -19 36 -20 66
-40 66 -46 0 -6 2 -9 5 -6 7 7 -24 100 -37 113 -5 6 -3 -6 5 -26 l14 -35 -63
33 c-49 26 -65 41 -70 61 -11 50 -14 47 -8 -7 4 -30 17 -84 30 -121 13 -37 26
-82 29 -100 3 -18 15 -51 27 -73 18 -36 58 -142 58 -155 0 -2 -7 1 -15 8 -14
11 -14 10 -5 -14 8 -21 7 -25 -3 -19 -6 4 -19 9 -27 10 -31 5 -184 89 -189
103 -3 11 3 10 20 -5 l24 -20 -19 22 c-10 13 -23 20 -29 16 -6 -4 -8 0 -4 11
4 9 3 15 -2 12 -11 -7 -23 22 -15 35 3 6 -2 21 -10 34 -16 24 -16 25 8 25 26
0 85 -28 121 -58 12 -10 10 -6 -5 11 -14 16 -45 39 -70 50 -31 15 -52 35 -67
62 -13 22 -23 36 -23 30 0 -5 9 -25 21 -44 17 -28 18 -33 4 -27 -9 3 -18 6
-20 6 -2 0 -11 23 -20 51 -9 28 -19 48 -21 46 -7 -6 25 -90 41 -107 8 -9 13
-19 10 -21 -8 -9 28 -126 70 -224 61 -142 61 -173 0 -60 -15 28 -32 55 -37 60
-12 11 48 -108 87 -175 l26 -45 -26 30 c-14 17 -44 64 -65 105 -21 41 -53 95
-69 120 -34 50 -40 70 -14 49 15 -13 15 -12 5 8 -7 12 -9 28 -6 37 3 8 -4 25
-15 37 -12 13 -21 19 -21 14 0 -5 7 -16 15 -25 14 -15 14 -19 -1 -31 -14 -11
-19 -10 -36 11 -30 38 -10 2 38 -66 56 -80 177 -314 161 -314 -19 1 -43 23
-51 47 -4 11 -14 27 -23 35 -14 11 -14 9 1 -20 20 -40 14 -53 -13 -28 -12 11
-21 14 -26 7 -9 -16 -28 -13 -22 3 3 7 8 35 11 62 l6 49 -18 -39 c-16 -34 -19
-37 -31 -22 -16 19 -36 22 -25 4 5 -8 1 -7 -10 2 -15 12 -17 26 -14 85 3 51 1
75 -9 83 -11 11 -13 2 -13 -47 0 -33 -4 -62 -8 -65 -4 -2 -29 20 -55 50 l-48
54 2 75 c3 98 -7 106 -16 13 l-8 -73 -96 100 c-53 56 -83 86 -67 68 l30 -33
-30 1 c-34 2 -96 16 -74 18 9 1 2 9 -16 20 -44 27 -53 44 -20 35 41 -10 51
-10 51 1 0 6 -4 9 -9 7 -5 -2 -22 2 -38 9 -16 6 -31 9 -35 6 -5 -6 14 -50 69
-162 11 -22 28 -49 37 -60 10 -11 35 -47 56 -80 48 -74 129 -161 173 -184 l33
-17 -25 -27 c-14 -15 -34 -27 -46 -27 -12 0 -20 -7 -20 -17 0 -9 -2 -14 -5
-11 -3 3 -2 24 3 46 9 36 7 43 -12 59 -14 12 -17 13 -9 2 9 -12 10 -25 1 -55
-6 -21 -13 -33 -15 -26 -3 6 -13 12 -22 12 -14 0 -17 7 -15 28 3 24 3 25 -4 4
-7 -23 -8 -23 -24 -5 -10 11 -18 39 -20 71 -2 28 -7 52 -11 52 -5 0 -7 -22 -5
-49 l3 -48 -40 25 c-73 47 -76 52 -74 104 2 41 -1 51 -20 65 -22 15 -23 15
-12 -5 13 -25 15 -102 2 -102 -5 0 -20 12 -33 28 -40 44 -155 150 -128 117 13
-16 49 -53 79 -81 l55 -51 -35 -1 c-42 -1 -69 12 -44 21 9 4 14 3 11 -1 -3 -5
1 -9 9 -9 8 0 15 1 15 3 0 11 -109 77 -134 81 -19 3 -33 11 -33 19 0 8 5 14
10 14 12 0 0 14 -14 16 -5 1 -13 2 -17 3 -12 1 -11 31 0 31 5 0 6 5 3 10 -12
19 19 10 44 -12 22 -20 23 -20 8 -2 -9 11 -14 24 -10 28 5 4 -8 6 -27 4 -30
-3 -35 -7 -38 -32 -2 -18 9 -53 29 -93 65 -129 326 -362 434 -389 32 -8 31
-19 -2 -52 -15 -15 -27 -29 -28 -32 0 -7 -12 -2 -78 30 -31 16 -54 24 -51 18
4 -6 -2 -6 -15 1 -35 19 -27 -19 11 -51 26 -21 29 -28 15 -28 -10 0 -16 4 -13
8 3 5 -4 8 -16 8 -15 -1 -24 9 -34 34 -7 19 -13 30 -13 23 -2 -28 21 -63 51
-79 43 -22 45 -24 29 -33 -10 -6 -5 -11 18 -16 39 -8 49 -24 25 -42 -16 -12
-21 -11 -37 9 -18 22 -18 22 -8 1 15 -31 14 -38 -6 -22 -15 12 -16 12 -10 -5
6 -15 5 -17 -6 -8 -8 7 -17 9 -20 5 -7 -6 -49 82 -50 104 0 7 -6 14 -13 17 -9
3 -6 -12 8 -50 12 -30 19 -57 16 -60 -8 -7 -71 20 -84 37 -20 26 -42 98 -32
101 6 2 -1 9 -15 15 l-24 11 19 -51 c11 -29 24 -58 30 -64 6 -7 8 -13 5 -13
-17 0 -119 43 -131 56 -8 8 -17 10 -20 5 -3 -5 38 -28 92 -51 157 -68 252
-113 248 -117 -2 -3 -72 25 -154 61 -153 67 -227 90 -117 37 37 -18 52 -30 39
-30 -11 -1 -25 4 -32 11 -9 9 -12 9 -12 1 0 -8 -9 -9 -28 -4 -15 5 -37 4 -50
0 -16 -6 -21 -5 -16 2 4 8 -1 9 -17 5 -16 -5 -12 1 13 16 45 27 47 34 12 42
-15 4 -69 27 -121 51 -52 25 -90 38 -83 30 6 -8 21 -17 31 -20 15 -5 17 -10 9
-19 -10 -13 -56 -10 -65 4 -3 5 5 6 17 2 14 -3 19 -2 14 6 -4 7 -12 12 -17 12
-19 0 -82 30 -76 37 4 3 13 0 22 -7 8 -7 15 -8 15 -3 0 5 -11 15 -25 21 -22
10 -25 9 -25 -7 0 -10 11 -35 25 -55 14 -20 25 -40 25 -45 0 -4 16 -16 35 -27
19 -10 35 -24 35 -30 0 -6 14 -17 31 -25 18 -7 46 -25 63 -41 17 -15 37 -28
45 -28 18 0 139 -58 146 -71 4 -5 -9 -7 -27 -4 l-33 5 29 -10 c20 -6 34 -6 42
1 14 11 54 6 157 -18 59 -15 67 -20 67 -40 0 -13 16 -40 35 -62 29 -32 32 -40
19 -45 -8 -3 -23 -2 -33 4 -10 5 -27 6 -39 3 -12 -3 -22 -1 -22 5 0 5 -7 13
-16 16 -15 6 -15 4 -3 -10 13 -16 11 -17 -13 -11 -21 6 -27 3 -30 -10 -3 -14
-8 -11 -27 16 -20 27 -21 35 -10 42 11 6 8 9 -8 9 -27 0 -28 -10 -7 -52 l16
-31 -32 7 c-18 3 -45 6 -61 6 -19 0 -41 12 -69 39 -22 21 -43 35 -45 31 -3 -5
14 -24 37 -44 l43 -36 -36 0 c-26 0 -50 11 -89 40 -57 43 -60 44 -60 32 0 -4
19 -22 42 -40 l42 -32 -118 1 c-65 0 -120 -2 -124 -5 -3 -3 53 -6 124 -6 116
-1 126 -2 104 -15 -17 -9 -39 -12 -70 -7 -25 3 -82 6 -127 7 -44 0 -79 3 -77
7 3 4 -13 6 -35 5 -22 0 -37 -5 -34 -10 3 -5 -4 -6 -17 -2 -12 4 -20 3 -17 -1
3 -5 -5 -9 -16 -10 -12 0 -31 -5 -42 -9 -19 -8 -19 -7 -5 11 14 18 14 18 -3 5
-10 -8 -14 -18 -10 -22 5 -5 63 -14 131 -20 91 -9 122 -16 122 -26 0 -11 4
-11 22 -2 17 9 24 9 32 -2 8 -11 42 -14 136 -14 69 0 151 -4 183 -8 l57 -8 0
-65 c0 -35 -3 -64 -8 -64 -4 0 -6 -20 -4 -45 2 -25 2 -45 -1 -45 -3 0 -22 10
-42 21 -50 30 -56 16 -6 -16 40 -27 46 -51 10 -42 -11 3 -17 1 -13 -4 13 -22
-13 -4 -77 53 -38 33 -72 58 -76 55 -3 -4 17 -27 46 -53 28 -25 51 -50 51 -55
0 -5 -28 -9 -63 -9 -62 0 -63 1 -112 50 -67 68 -78 63 -16 -7 28 -31 51 -61
51 -65 0 -4 -46 -8 -102 -8 -93 0 -104 2 -127 24 -15 13 -48 31 -74 41 -35 13
-44 21 -35 27 10 8 10 9 -1 6 -29 -8 -21 -26 17 -41 22 -9 54 -25 72 -35 l32
-20 -89 5 c-48 3 -91 11 -95 17 -4 6 -8 -3 -8 -20 0 -17 9 -43 20 -56 41 -53
118 -66 401 -66 125 1 232 -2 238 -6 6 -4 11 -26 11 -49 0 -86 16 -77 -286
-158 -150 -41 -274 -78 -274 -83 0 -13 71 4 255 61 68 21 135 32 135 21 0 -4
-5 -8 -11 -8 -28 0 -110 -45 -125 -69 l-17 -26 25 23 c24 22 27 22 84 8 l59
-14 -55 -2 c-39 -1 -49 -4 -35 -9 15 -6 8 -10 -32 -15 -29 -4 -56 -5 -61 -2
-5 3 -29 -16 -53 -42 l-44 -47 41 38 c29 27 49 38 65 35 21 -3 19 -6 -20 -33
-24 -16 -53 -36 -65 -42 -38 -22 131 -17 206 7 34 11 70 20 78 20 8 0 41 11
73 24 l58 24 52 -35 c74 -50 77 -66 25 -122 -76 -81 -94 -108 -34 -51 l58 55
-22 -40 c-12 -22 -63 -85 -113 -140 -50 -55 -93 -102 -94 -104 -2 -2 -5 -2 -8
1 -3 3 6 21 21 39 16 21 10 17 -15 -10 -23 -24 -41 -50 -41 -57 0 -27 29 -14
68 31 43 49 59 58 42 23 -11 -23 -11 -23 7 -3 10 12 32 38 49 59 25 30 37 37
53 31 12 -3 21 -10 21 -15 0 -5 6 -7 14 -4 23 9 27 -12 6 -36 -20 -23 -145
-74 -160 -65 -10 6 -30 -26 -30 -46 0 -9 4 -7 13 3 6 9 45 30 85 46 70 29 73
30 59 9 -8 -12 -20 -33 -28 -46 -16 -26 -135 -85 -152 -74 -7 4 -8 0 -3 -12 4
-12 -1 -26 -16 -43 l-23 -25 33 17 c26 14 36 15 48 5 13 -10 13 -14 -1 -29 -8
-9 -12 -20 -8 -24 5 -4 3 -6 -2 -4 -13 4 -89 -41 -82 -49 3 -3 22 5 41 17 53
32 43 18 -14 -21 -27 -19 -50 -39 -50 -46 0 -6 -5 -15 -12 -19 -7 -5 -8 -3 -3
7 8 12 6 12 -8 0 -10 -8 -15 -16 -12 -19 7 -7 -46 -63 -55 -57 -10 6 -93 -81
-96 -100 -1 -9 3 -15 10 -13 20 5 156 164 148 173 -4 5 -1 5 6 1 9 -5 13 -24
11 -50 -4 -92 3 -95 105 -34 77 45 188 152 242 233 39 57 88 117 157 189 l47
51 0 -31 c0 -17 3 -33 6 -36 11 -12 44 5 44 23 0 22 18 26 26 5 4 -12 -41 -91
-109 -191 l-20 -30 29 27 c17 16 50 31 79 38 55 11 95 29 95 41 0 4 -19 0 -42
-10 -24 -10 -58 -21 -75 -25 -31 -5 -32 -4 -20 15 14 23 33 29 97 32 25 1 48
6 52 12 4 5 10 7 13 4 3 -4 -9 -25 -27 -47 -18 -23 -41 -52 -50 -65 -12 -17
-40 -32 -88 -46 -39 -12 -75 -19 -79 -16 -5 3 -19 -12 -31 -33 -19 -31 -19
-35 -4 -21 11 8 52 27 91 42 l73 26 -14 -27 c-42 -79 -69 -104 -149 -132 -56
-20 -77 -24 -73 -14 13 33 -6 10 -29 -36 -26 -51 -35 -84 -11 -42 12 23 166
100 166 83 0 -4 -18 -20 -40 -37 -22 -16 -40 -33 -40 -37 0 -5 5 -5 10 -2 6 3
10 4 10 2 0 -7 -124 -80 -135 -80 -6 0 -12 -9 -12 -19 -2 -18 -1 -18 25 0 15
10 45 25 67 35 22 9 32 11 21 4 -73 -49 -113 -72 -125 -72 -33 0 -42 -158 -10
-178 52 -33 257 149 449 398 30 38 73 89 97 112 24 22 43 48 43 57 0 15 50 69
58 62 2 -2 -6 -22 -17 -45 -24 -45 -26 -55 -10 -46 6 4 1 -11 -10 -34 -12 -23
-24 -41 -26 -41 -3 0 2 14 10 31 9 17 14 33 12 35 -3 3 -14 -14 -26 -37 -16
-30 -19 -45 -11 -53 13 -13 45 21 75 77 21 41 33 53 42 43 3 -3 -10 -32 -29
-63 -42 -68 -78 -149 -71 -157 3 -2 -9 -30 -27 -61 -18 -31 -34 -54 -37 -52
-2 3 6 22 19 44 33 51 43 73 21 44 -32 -43 -66 -104 -54 -97 14 9 14 1 0 -25
-5 -11 -15 -17 -21 -13 -7 4 -8 -1 -3 -16 5 -15 3 -20 -3 -16 -6 3 -14 1 -18
-5 -4 -8 -3 -9 4 -5 7 4 12 4 12 0 0 -10 -41 -74 -47 -74 -3 0 2 11 11 25 9
13 16 28 16 32 0 14 -89 -131 -90 -146 0 -8 6 -11 16 -7 9 3 18 6 20 6 2 0 4
5 4 11 0 6 13 29 28 52 16 23 44 70 62 104 19 34 36 61 37 59 3 -3 -51 -119
-77 -168 -12 -22 -13 -58 -1 -58 18 0 111 204 116 254 3 32 16 70 42 114 50
86 66 92 57 20 -6 -45 -5 -51 7 -42 53 41 129 94 129 89 0 -3 -7 -21 -14 -40
-8 -19 -12 -35 -9 -35 4 0 -6 -14 -23 -32 l-29 -31 38 28 c20 15 37 32 37 37
0 5 -4 6 -10 3 -6 -4 -7 1 -3 11 5 13 7 14 14 2 7 -12 -3 -85 -13 -92 -1 -1
-19 -13 -38 -26 -19 -13 -50 -37 -67 -54 l-33 -30 -1 30 c-1 18 -3 22 -6 11
-3 -11 -2 -35 2 -54 l6 -35 64 61 c35 34 65 61 68 61 2 0 -2 -34 -9 -76 -9
-49 -20 -81 -31 -90 -17 -13 -17 -14 0 -8 30 11 15 -18 -24 -47 -20 -15 -44
-37 -52 -49 -16 -22 -12 -64 5 -54 6 4 5 -4 -2 -16 -14 -27 3 -156 26 -203 26
-50 45 -36 130 98 63 100 86 164 129 365 22 102 23 104 74 90 28 -7 41 -16 41
-28 0 -33 -45 -355 -74 -527 -25 -149 -35 -250 -27 -258 4 -4 16 20 26 55 9
35 25 88 35 118 10 30 22 80 25 110 7 59 25 110 38 110 5 0 6 -22 2 -49 -7
-51 9 -82 20 -38 11 42 1 122 -14 119 -11 -2 -12 17 -6 110 4 62 11 135 16
162 5 27 9 66 9 87 0 37 12 51 25 29 7 -11 35 -2 35 12 0 5 -4 7 -9 3 -5 -3
-12 -1 -15 4 -3 5 3 11 14 14 27 7 36 35 17 54 -19 20 -37 9 -37 -23 0 -13 -4
-24 -9 -24 -10 0 -2 91 9 104 15 15 70 -36 69 -63 0 -14 4 -39 9 -56 l10 -30
1 38 c1 31 6 41 33 57 32 19 54 18 42 -2 -5 -7 2 -9 22 -4 28 7 28 7 9 -8 -19
-15 -19 -16 8 -6 34 12 37 12 37 2 0 -5 -17 -18 -37 -30 -51 -29 -91 -62 -77
-62 7 0 35 15 63 34 l51 35 0 -109 0 -109 -44 -26 c-23 -14 -52 -35 -62 -46
l-19 -21 -6 28 c-5 23 -7 20 -8 -18 -1 -52 6 -59 34 -28 10 11 22 17 28 13 5
-3 7 -2 4 4 -6 9 12 29 56 62 16 13 17 8 16 -70 -1 -46 -3 -76 -6 -67 -4 16
-6 16 -29 2 -13 -9 -22 -20 -19 -24 3 -4 -2 -13 -9 -19 -11 -9 -16 -9 -21 0
-7 10 38 63 47 54 2 -2 9 5 16 15 8 13 9 20 1 20 -5 0 -7 6 -3 13 5 8 3 8 -9
-2 -9 -7 -15 -17 -12 -21 6 -10 -14 -24 -35 -25 -10 0 -16 -11 -17 -35 -1 -19
-4 -46 -8 -60 -5 -24 -5 -24 4 -2 15 32 21 27 11 -8 -10 -35 2 -84 37 -155 27
-53 51 -85 64 -85 16 0 47 42 77 103 48 99 75 236 87 447 7 118 20 170 41 170
8 0 14 7 14 15 0 8 5 15 10 15 13 0 13 -17 0 -25 -28 -17 5 -70 36 -58 7 2 14
-17 17 -54 7 -75 21 -172 53 -363 25 -152 86 -374 106 -386 13 -8 2 97 -28
261 -26 144 -74 477 -74 513 0 17 7 24 30 28 17 4 31 12 31 18 1 6 2 17 3 25
0 8 6 16 12 18 7 2 14 -17 18 -49 15 -111 97 -388 121 -408 8 -7 15 -16 15
-20 0 -4 21 -42 46 -84 55 -91 75 -98 103 -33 17 39 28 105 37 207 7 96 3 449
-7 478 -6 18 -9 37 -7 44 4 12 66 -87 88 -142 7 -19 23 -45 35 -57 17 -18 48
-71 111 -194 8 -14 25 -36 39 -49 32 -30 34 -7 4 45 -12 20 -31 55 -43 78 -12
23 -27 41 -35 39 -8 -2 -11 3 -8 13 4 8 -7 38 -23 66 -17 28 -49 85 -72 127
-23 42 -53 93 -68 112 -28 37 -56 108 -46 117 7 8 3 13 55 -75 50 -84 56 -89
70 -63 9 15 1 34 -39 101 -53 88 -57 100 -37 100 12 0 57 -42 57 -54 0 -9 154
-210 204 -268 23 -25 61 -70 86 -100 59 -70 158 -168 170 -168 5 0 17 -8 27
-19 10 -10 35 -24 55 -31 30 -11 39 -11 52 -1 19 16 21 73 5 136 -10 39 -17
47 -63 71 -28 14 -55 31 -61 37 -5 5 12 -2 39 -17 27 -14 51 -24 54 -22 8 8
-6 50 -23 71 l-17 20 7 -20 c4 -11 9 -27 12 -35 3 -8 -5 -4 -17 10 -12 14 -19
18 -15 10 4 -8 -1 -6 -9 4 -9 11 -16 17 -16 13 0 -5 -12 4 -27 18 -16 14 -33
23 -40 21 -6 -3 -19 7 -29 22 -10 15 -25 32 -33 39 -25 19 -6 15 56 -13 107
-48 103 -47 91 -13 -5 16 -14 32 -19 35 -5 3 -6 -1 -3 -9 10 -28 -134 32 -157
65 -11 15 -24 26 -28 23 -5 -2 -17 5 -27 18 l-19 22 23 -19 c30 -26 28 -12 -4
30 l-27 35 74 -27 c41 -15 82 -34 92 -43 18 -15 18 -15 1 15 -10 17 -22 31
-28 31 -6 0 -43 10 -83 22 -66 21 -74 27 -114 79 -23 31 -35 51 -26 44 9 -8
48 -22 87 -32 66 -17 71 -17 68 -2 -2 10 -11 16 -23 14 -26 -5 -104 18 -140
41 -28 18 -29 19 -5 14 14 -3 48 -9 75 -13 28 -3 56 -11 64 -17 7 -7 4 4 -8
23 -25 42 -30 90 -6 70 21 -17 43 -6 47 25 l3 27 27 -29 c14 -15 37 -39 50
-53 12 -13 28 -32 33 -41 58 -94 204 -258 270 -303 135 -93 161 -95 152 -11
-3 30 -3 55 1 55 4 0 40 -38 80 -85 65 -75 102 -103 102 -76 0 5 -43 53 -95
107 -86 89 -98 106 -119 169 -15 46 -29 71 -41 73 -12 3 -16 11 -12 28 2 13 0
24 -4 24 -5 0 -6 8 -3 17 4 13 3 14 -3 5 -8 -10 -21 -8 -67 9 -32 13 -61 30
-64 38 -3 9 -8 18 -12 21 -16 13 -52 73 -39 65 9 -5 8 -2 -3 11 -14 16 -15 23
-5 33 6 7 8 12 2 11 -29 -6 -26 3 5 15 l35 13 48 -51 c27 -29 41 -40 31 -25
-34 56 22 20 70 -45 26 -36 46 -48 46 -26 0 14 -74 122 -96 139 -10 8 -4 -4
15 -28 18 -24 31 -45 29 -47 -4 -4 -173 173 -212 222 -34 44 -8 36 45 -13 36
-33 46 -39 31 -19 -47 62 -55 76 -48 82 4 4 17 1 29 -7 12 -7 51 -29 87 -48
36 -19 79 -42 95 -52 17 -10 50 -26 75 -36 25 -9 54 -25 65 -34 37 -33 104
-60 139 -58 32 3 41 18 11 18 -10 0 -17 16 -22 43 -6 37 -7 39 -14 17 -4 -14
-7 -19 -8 -12 -1 6 -6 12 -12 12 -7 0 -5 -10 5 -25 21 -32 10 -32 -16 0 -11
14 -24 25 -30 25 -6 0 -5 -7 3 -17 13 -16 12 -17 -3 -4 -10 7 -25 11 -33 7
-24 -9 -17 2 13 19 l27 16 -44 -5 c-40 -4 -56 2 -170 64 -128 70 -204 119
-123 80 52 -25 56 -18 4 9 -64 33 -68 44 -38 96 29 49 37 53 57 29 21 -25 59
-40 170 -68 66 -16 133 -26 175 -25 38 0 63 3 56 6 -7 3 -36 20 -63 39 -47 31
-49 35 -29 42 21 8 21 9 4 23 -15 11 -16 11 -9 0 7 -12 -1 -13 -46 -6 -30 4
-79 10 -109 14 l-55 6 79 14 c62 11 83 12 100 2 16 -9 15 -7 -4 11 -14 13 -37
30 -50 39 -32 21 -21 33 16 18 53 -20 279 -76 292 -72 15 6 16 33 1 33 -5 0
-7 -4 -4 -10 3 -5 3 -10 -1 -10 -4 0 -116 30 -248 66 -133 37 -251 69 -262 71
-33 7 -47 43 -39 99 l6 49 187 -1 c221 -2 380 10 420 30 40 20 52 38 58 83 3
22 2 33 -3 26 -4 -6 -46 -15 -93 -19 -80 -6 -84 -6 -70 11 8 9 38 28 67 41 62
27 70 39 14 19 -52 -18 -75 -31 -97 -52 -16 -16 -41 -18 -223 -19 -113 0 -163
1 -110 3 l97 4 56 58 c31 33 61 62 68 64 10 4 10 6 1 6 -16 1 -17 59 -3 97 8
19 8 30 0 38 -5 5 -10 20 -10 33 0 25 27 32 47 12 17 -17 37 -1 22 17 -10 12
-2 14 47 15 80 0 197 22 201 36 2 6 -6 17 -19 23 -23 11 -23 11 -3 -6 l20 -17
-20 7 c-31 11 -116 26 -150 27 -16 0 -88 4 -158 7 l-129 7 24 21 c12 12 32 26
43 32 14 8 16 11 5 12 -8 0 -39 -16 -67 -35 -45 -30 -103 -47 -103 -30 0 3 16
19 35 36 19 17 33 35 30 39 -3 4 -22 -8 -42 -27 -46 -42 -71 -53 -125 -53 -31
0 -38 3 -31 13 5 6 14 24 21 40 11 25 10 27 -11 27 -14 0 -18 -3 -10 -8 9 -6
7 -16 -8 -39 -18 -28 -22 -30 -44 -19 -33 15 -31 23 8 41 25 12 27 14 7 10
-14 -2 -33 -5 -42 -5 -10 0 -26 -8 -36 -18 -17 -17 -132 -39 -132 -26 0 2 17
12 38 21 25 13 43 31 56 58 21 46 60 67 160 84 78 14 99 14 90 -1 -5 -8 -2 -9
10 -5 10 4 24 7 32 7 7 0 11 6 8 13 -7 18 13 33 66 52 59 21 193 120 243 181
35 42 56 119 38 136 -11 11 -13 11 -7 0 9 -15 -2 -52 -15 -52 -6 0 -7 5 -3 11
3 6 -9 3 -27 -6 -44 -23 -45 -23 -16 -21 14 0 23 4 20 9 -2 4 1 7 7 7 7 0 10
-6 8 -12 -3 -7 -10 -13 -15 -13 -6 0 -15 -3 -19 -7 -12 -12 -46 -9 -39 3 4 5
-24 -5 -62 -24 -37 -19 -104 -46 -148 -61 -72 -24 -140 -55 -124 -56 4 0 26 9
50 20 48 22 86 25 109 10 11 -7 3 -8 -25 -5 -31 5 -37 3 -25 -5 12 -9 9 -10
-13 -5 -22 4 -27 3 -21 -7 4 -7 4 -10 -1 -6 -4 4 -13 1 -19 -7 -9 -13 -17 -14
-42 -5 -28 10 -43 6 -135 -34 -56 -25 -104 -44 -106 -43 -3 4 101 56 185 93
34 15 60 29 58 31 -2 3 -14 -1 -26 -7 -12 -7 -21 -8 -18 -3 2 4 12 32 23 61
11 30 28 55 38 58 10 3 17 8 14 10 -11 11 -62 -23 -64 -44 -6 -51 -32 -91 -73
-112 -23 -12 -44 -20 -46 -18 -5 6 35 110 49 127 10 12 9 12 -10 0 -13 -8 -23
-19 -23 -25 0 -21 -39 -101 -57 -115 -15 -13 -15 -12 -3 11 l13 25 -22 -19
c-22 -20 -43 -14 -23 6 7 7 12 17 12 23 0 5 -5 2 -11 -8 -6 -9 -15 -14 -21
-11 -7 5 -8 2 -3 -7 4 -8 -3 -4 -16 9 -20 19 -22 24 -9 32 13 8 12 10 -2 10
-33 0 -18 16 31 34 69 25 80 35 102 96 33 92 33 90 13 89 -11 0 -13 -3 -7 -6
10 -3 10 -10 -1 -31 -8 -15 -19 -46 -25 -69 -10 -36 -15 -42 -39 -41 -15 1
-38 -2 -52 -6 -14 -3 -5 3 20 15 52 23 46 18 54 45 6 21 3 20 -76 -11 -51 -21
-87 -30 -92 -24 -29 27 -20 -2 28 -95 50 -97 96 -209 78 -192 -4 4 -27 50 -52
102 -45 94 -45 94 -70 81 -31 -16 -90 -37 -90 -32 0 2 23 16 50 31 28 15 50
30 50 33 -1 30 -202 321 -222 321 -5 0 -45 -18 -89 -40 -88 -44 -118 -51 -79
-19 30 25 154 89 173 89 7 0 50 -54 97 -120 46 -66 86 -120 88 -120 2 0 -3 11
-12 25 -23 35 -20 49 6 31 19 -14 26 -12 87 20 36 19 69 41 74 49 4 8 15 15
23 15 8 0 64 48 123 108 88 87 115 121 145 182 20 41 36 87 36 102 0 25 -3 28
-32 27 -31 -2 -31 -2 -5 -6 27 -4 27 -4 -20 -42 -58 -46 -77 -67 -69 -79 3 -6
-2 -9 -12 -8 -9 0 -16 -4 -15 -11 1 -6 -12 -17 -30 -23 -18 -7 -26 -14 -19
-17 22 -9 13 -18 -21 -20 -31 -2 -29 1 63 89 52 50 77 77 55 60 -22 -17 -71
-60 -108 -96 -38 -36 -72 -66 -76 -66 -4 0 -4 24 -1 54 5 47 4 52 -10 44 -11
-7 -14 -23 -12 -58 4 -44 1 -49 -30 -70 -18 -13 -46 -35 -62 -49 l-28 -26 7
64 c5 46 4 62 -4 57 -6 -4 -11 -34 -11 -66 0 -49 -3 -61 -20 -70 -11 -6 -20
-15 -20 -21 0 -6 23 8 50 31 28 24 53 40 56 38 2 -3 -30 -34 -73 -69 -88 -73
-128 -99 -68 -44 35 31 37 35 15 29 -14 -4 -28 -11 -31 -16 -3 -5 -9 12 -13
38 -4 31 -2 52 6 63 7 8 -4 2 -24 -13 -21 -16 -38 -31 -38 -34 0 -3 5 -1 12 6
19 19 28 14 28 -18 0 -35 1 -34 -35 -16 -48 25 -69 75 -32 76 17 1 88 56 81
63 -4 4 5 11 18 18 14 6 36 30 48 53 13 22 49 79 81 126 31 47 64 102 73 123
9 20 23 53 31 72 l16 36 -42 -21 c-22 -12 -44 -19 -47 -15 -3 3 12 25 34 48
21 24 -30 -27 -113 -112 l-153 -156 0 73 c0 46 -4 72 -11 72 -7 0 -10 -26 -8
-78 l4 -79 -51 -56 -52 -56 -6 31 c-10 49 -7 103 7 118 6 8 -5 -1 -25 -20 -37
-34 -53 -55 -24 -31 12 10 15 1 21 -49 8 -65 -2 -90 -33 -85 -9 1 -20 -5 -23
-14 -4 -11 -10 -3 -19 27 -12 38 -11 44 6 65 10 12 3 6 -16 -14 -47 -48 -78
-92 -85 -120 -3 -13 -13 -33 -21 -44 -13 -17 -16 -18 -24 -5 -6 10 -3 26 12
50 22 38 32 55 115 200 29 52 61 106 69 120 15 23 15 23 0 6 -13 -16 -18 -17
-31 -6 -11 9 -13 16 -5 24 5 5 10 14 10 19 0 5 -7 1 -16 -8 -9 -8 -13 -23 -10
-32 4 -8 1 -23 -6 -31 -10 -12 -10 -14 0 -8 22 13 13 -16 -26 -78 -21 -34 -53
-88 -71 -121 -17 -33 -43 -73 -58 -90 l-25 -30 19 35 c11 19 33 56 48 83 31
55 27 64 -5 11 -30 -47 -38 -36 -12 18 11 24 27 66 35 93 9 28 27 81 42 118
14 37 25 75 25 84 0 9 6 24 14 32 15 17 56 131 55 153 0 7 -13 -21 -28 -62
-16 -41 -33 -74 -40 -72 -6 1 -11 -3 -11 -9 0 -6 -7 -8 -16 -5 -8 3 -12 2 -9
-4 3 -6 -3 -10 -15 -10 -13 0 -19 4 -14 12 5 7 3 8 -5 4 -7 -5 -10 -10 -7 -13
3 -3 -12 -18 -33 -34 -54 -39 -62 -56 -9 -20 56 39 96 49 104 26 4 -9 1 -22
-6 -28 -10 -10 -11 -7 -5 13 5 19 4 21 -4 10 -6 -8 -8 -23 -5 -32 3 -10 1 -18
-5 -18 -9 0 -27 -56 -23 -72 3 -12 -38 -29 -51 -22 -6 4 -9 4 -5 -1 10 -11
-119 -75 -159 -80 l-33 -4 16 37 c9 20 21 53 26 72 6 19 23 60 37 90 15 30 33
82 40 115 7 33 19 75 27 93 15 34 32 252 21 252 -4 0 -7 -32 -7 -70z m-1673
-542 c135 -142 237 -255 261 -289 14 -22 -69 65 -159 164 -33 37 -38 39 -104
42 -39 2 -77 5 -85 5 -20 2 -66 70 -47 70 49 0 136 -26 162 -49 l30 -26 -30
33 c-26 27 -43 34 -108 46 -43 7 -81 16 -84 20 -7 7 100 -2 127 -10 13 -5 13
-3 0 10 -8 8 -42 18 -75 22 -60 7 -88 22 -107 58 -9 16 -7 18 6 13 9 -4 16 -4
16 -1 0 2 -10 9 -22 14 -16 6 -5 7 39 5 l62 -3 118 -124z m2309 116 c-9 -8
-13 -21 -9 -27 4 -7 0 -8 -11 -4 -10 4 -15 3 -11 -4 13 -20 -16 -37 -74 -43
-34 -4 -65 -13 -72 -22 -11 -13 -9 -15 12 -10 59 12 110 16 105 8 -3 -5 -32
-12 -63 -16 -59 -7 -109 -26 -68 -26 11 0 37 5 58 11 49 13 62 9 42 -16 -9
-11 -14 -15 -11 -8 5 8 0 8 -19 0 -14 -7 -25 -16 -25 -21 0 -5 -6 -3 -14 3
-11 9 -15 7 -19 -10 -5 -18 -12 -21 -53 -17 l-47 3 -105 -115 c-130 -143 -144
-157 -101 -100 67 87 271 300 281 294 6 -4 8 -3 5 3 -7 12 77 105 101 111 9 2
30 4 45 5 20 0 24 2 15 8 -8 6 -2 9 20 9 30 0 32 -1 18 -16z m-1726 -338 c0
-7 -27 -30 -60 -50 -32 -20 -62 -41 -66 -47 -3 -5 27 11 68 36 l73 46 17 -38
c16 -34 16 -39 2 -50 -13 -10 -21 -7 -41 15 -19 21 -22 23 -14 6 6 -12 7 -24
4 -28 -3 -3 0 -6 8 -6 12 0 12 -2 0 -9 -8 -5 -21 -7 -29 -3 -10 3 -13 1 -8 -6
4 -7 2 -12 -4 -12 -7 0 -10 7 -6 15 8 22 -3 45 -19 39 -11 -5 -11 -11 -3 -30
7 -15 8 -28 2 -33 -14 -13 -53 6 -62 29 -7 20 -15 16 -92 -52 -102 -90 -200
-194 -247 -265 -27 -40 -34 -60 -31 -83 3 -21 1 -27 -6 -20 -16 16 -25 12 -19
-10 3 -12 14 -20 26 -20 20 0 20 -1 -3 -25 -12 -13 -28 -21 -33 -18 -6 4 -3
10 9 15 16 6 15 7 -6 5 -20 -2 -29 -14 -52 -67 l-27 -65 22 -7 c20 -5 20 -6
-4 -7 -15 -1 -30 -8 -33 -17 -4 -9 -9 -14 -12 -12 -10 11 29 124 74 213 120
240 274 411 489 540 62 38 83 43 83 21z m999 -13 c156 -90 305 -232 405 -383
54 -82 119 -210 111 -218 -3 -4 -10 -1 -14 7 -5 7 -19 11 -32 10 -13 -2 -30 1
-38 6 -11 6 -5 11 23 19 l38 11 -23 29 -22 28 -13 -28 -12 -29 5 36 c8 57 -27
110 -160 244 -114 115 -234 212 -305 249 -41 21 -55 20 -16 -2 61 -34 125 -84
121 -95 -6 -18 -33 -31 -51 -24 -13 5 -15 11 -6 26 8 17 5 23 -25 41 -29 18
-38 20 -50 10 -21 -17 -19 -25 11 -39 21 -9 30 -9 42 1 13 11 14 10 10 -2 -6
-18 -29 -17 -79 2 -31 11 -35 16 -29 38 11 40 40 90 52 90 6 0 32 -12 57 -27z
m-1397 -78 c103 -60 109 -76 9 -26 -44 23 -86 41 -93 41 -16 -1 -159 -189
-198 -262 l-30 -54 61 -34 c33 -19 66 -41 72 -49 7 -8 -18 2 -54 22 -36 20
-72 37 -80 37 -13 0 -60 -87 -111 -205 -9 -22 -17 -32 -17 -22 -1 30 66 182
130 295 78 138 199 302 223 302 6 0 46 -20 88 -45z m61 -98 c-3 -4 -12 -2 -21
6 -10 8 -36 24 -60 36 -34 18 -47 20 -58 10 -8 -6 -14 -17 -14 -23 0 -6 7 -3
14 7 14 18 16 17 55 -9 51 -33 46 -45 -5 -13 -32 19 -38 20 -48 7 -6 -8 -18
-13 -26 -11 -8 2 -4 -4 10 -14 13 -10 37 -29 54 -43 l29 -24 -42 -37 -41 -37
-29 29 c-32 31 -57 39 -47 13 3 -9 2 -12 -5 -9 -6 4 -8 13 -5 21 13 33 -16 10
-35 -28 -12 -24 -26 -46 -31 -49 -5 -3 -9 -10 -8 -15 1 -5 -3 -10 -9 -12 -6
-2 -11 1 -11 7 0 16 60 111 71 111 5 0 9 5 9 11 0 17 54 89 66 89 7 0 19 15
28 34 l16 34 74 -41 c41 -23 72 -45 69 -50z m1476 -152 c43 -34 161 -162 161
-174 0 -3 -12 -14 -26 -25 -26 -18 -26 -18 -46 2 l-20 20 21 7 c28 9 27 23 -5
35 -34 13 -39 13 -24 -5 7 -8 17 -12 23 -8 6 3 7 1 3 -5 -9 -15 -32 -3 -64 31
-20 21 -21 25 -8 30 22 9 20 22 -4 24 -11 1 -20 -3 -20 -8 0 -6 -8 -6 -20 1
-19 10 -19 12 -4 36 12 17 20 22 27 15 20 -20 30 -11 11 10 l-19 21 -21 -28
c-21 -25 -23 -26 -45 -10 -16 11 -19 16 -8 16 8 0 20 -5 27 -12 9 -9 12 -9 12
0 0 6 -8 15 -17 21 -14 8 -15 12 -4 25 18 21 19 21 70 -19z m-529 -5 c24 -13
33 -57 25 -115 -10 -63 -25 -56 -25 13 0 31 -4 63 -9 70 -6 10 -42 13 -133 14
-69 0 -130 -2 -137 -6 -6 -4 -11 -34 -11 -72 0 -70 -14 -86 -24 -26 -9 59 -7
86 10 110 14 21 22 22 150 22 75 0 144 -4 154 -10z m-625 -65 c14 -13 25 -36
25 -50 0 -31 -32 -65 -65 -66 -14 -1 -31 -2 -37 -3 -7 -1 -13 8 -13 19 0 16 7
20 34 20 65 0 69 67 3 73 -25 3 -41 -6 -84 -45 -30 -26 -67 -65 -83 -85 -29
-36 -49 -46 -59 -30 -3 5 24 41 61 81 99 109 169 136 218 86z m1086 -3 c71
-45 176 -172 143 -172 -4 0 -47 38 -95 85 -72 69 -94 85 -119 85 -23 0 -33 -6
-42 -25 -16 -35 5 -58 44 -50 24 6 28 3 28 -14 0 -17 -6 -21 -35 -21 -69 0
-98 68 -50 115 32 33 70 32 126 -3z m-446 -117 c33 -8 98 -34 144 -58 66 -33
97 -57 145 -110 56 -62 125 -175 126 -204 0 -25 -18 -13 -31 20 -20 51 -134
192 -186 230 -50 36 -150 83 -159 75 -2 -3 17 -13 43 -23 39 -14 80 -39 122
-72 2 -2 2 -6 -1 -9 -4 -3 -24 7 -46 23 -22 16 -59 35 -82 43 -24 8 -45 22
-47 32 -5 17 -59 35 -70 24 -4 -3 3 -6 15 -6 15 0 24 -8 28 -25 8 -31 -12 -57
-40 -53 -18 3 -21 10 -20 52 l0 48 -120 -5 c-90 -3 -137 -10 -184 -27 -35 -12
-61 -24 -59 -26 2 -2 18 1 36 7 56 20 46 1 -13 -25 -31 -14 -70 -35 -86 -46
-40 -29 -38 -12 2 23 18 16 24 24 13 18 -11 -5 -35 -23 -54 -38 -31 -27 -33
-31 -21 -54 13 -24 13 -24 -7 -6 -20 18 -22 17 -67 -35 -26 -29 -58 -79 -73
-110 -14 -32 -30 -55 -34 -53 -4 3 -10 -1 -12 -7 -3 -7 -6 -4 -6 7 -1 38 81
169 148 235 73 73 174 129 276 154 80 19 246 20 320 1z m-57 -149 c2 -3 -4
-30 -13 -61 -15 -55 -17 -57 -43 -49 -33 9 -58 9 -98 -1 -30 -7 -31 -6 -43 38
-16 66 -14 75 17 80 30 6 173 0 180 -7z m150 -49 c35 -16 66 -35 68 -42 3 -7
-7 -31 -23 -53 l-29 -39 -49 26 c-44 23 -50 29 -47 55 3 24 7 27 30 23 25 -5
26 -4 7 9 -26 20 -38 13 -49 -27 -12 -42 -10 -41 -28 -34 -12 5 -13 16 -5 65
9 58 11 59 36 53 14 -3 54 -19 89 -36z m872 -522 l0 -396 -37 6 c-21 3 -48 8
-60 11 l-23 4 0 385 0 385 60 0 60 0 0 -395z m648 332 c8 -6 17 -6 26 2 10 9
16 9 21 1 9 -15 -26 -40 -47 -34 -9 3 -19 0 -23 -6 -3 -5 -17 -7 -30 -4 -16 4
-30 -1 -44 -15 -19 -19 -19 -22 -5 -50 13 -26 19 -29 34 -21 10 5 22 19 25 31
l7 21 15 -21 c15 -23 43 -28 43 -9 0 23 13 -3 17 -32 2 -25 -1 -30 -20 -31
-18 0 -19 -2 -4 -7 15 -6 10 -14 -28 -55 -45 -47 -46 -47 -111 -47 -62 0 -64
1 -54 20 6 11 34 38 61 60 48 38 49 40 23 40 -15 0 -25 -3 -22 -6 6 -5 -115
-114 -126 -114 -3 0 -3 7 1 16 5 13 1 15 -18 10 -20 -6 -17 -1 16 28 44 39 38
47 -12 16 l-33 -20 0 35 0 35 53 2 52 2 -53 3 c-46 4 -54 8 -62 29 -12 30 -13
84 -2 100 17 26 271 44 300 21z m-2713 -147 l0 -50 -42 0 -43 0 -2 -256 -3
-257 -50 -13 c-27 -7 -53 -13 -57 -14 -4 0 -7 120 -8 267 0 147 -3 269 -6 272
-6 7 -91 3 -116 -5 -16 -5 -18 1 -18 50 l0 56 173 0 172 0 0 -50z m412 27 c16
-16 18 -40 15 -260 -2 -133 -5 -250 -8 -259 -3 -12 -28 -22 -82 -34 -42 -9
-109 -25 -149 -36 -80 -21 -109 -15 -117 25 -3 12 -7 150 -10 306 l-6 283 170
-4 c145 -3 172 -6 187 -21z m234 -92 l47 -100 1 83 c1 46 -4 92 -9 103 -10 18
-7 19 75 19 l86 0 -15 -22 c-13 -19 -16 -60 -16 -249 0 -227 0 -227 -22 -233
-67 -17 -76 -11 -117 77 -21 45 -41 89 -44 97 -3 8 -6 -30 -6 -85 l-1 -101
-55 -10 -55 -10 0 211 c0 200 -2 213 -25 270 -14 33 -25 60 -25 60 0 0 30 -2
66 -5 l67 -5 48 -100z m783 90 c-11 -15 -14 -67 -14 -226 l0 -206 58 -9 57 -9
3 -54 c3 -52 2 -53 -20 -48 -13 4 -65 14 -115 24 l-93 17 0 236 c0 183 -3 241
-14 262 l-14 27 51 4 c29 1 66 3 83 3 29 -1 31 -2 18 -21z m256 -225 l0 -250
28 -6 c99 -22 122 -34 123 -64 0 -14 2 -37 3 -52 1 -16 -3 -28 -9 -28 -6 0
-53 11 -105 24 -52 13 -107 27 -122 30 l-28 6 0 280 c0 211 -3 281 -12 286
-17 11 23 22 80 23 l42 1 0 -250z m-478 228 c-9 -9 -12 -79 -12 -255 l0 -243
-37 0 c-77 0 -83 6 -83 71 0 59 0 59 -30 59 l-30 0 0 -60 0 -60 -55 0 -55 0 0
250 0 250 157 0 c122 0 154 -3 145 -12z m658 -436 l45 -7 5 -98 c3 -53 1 -97
-3 -97 -5 0 -5 -4 -2 -10 3 -5 0 -10 -7 -10 -10 0 -10 -2 -1 -8 7 -5 10 -18 7
-32 -3 -14 -6 -31 -6 -37 -2 -19 -12 -16 -76 16 -31 15 -85 39 -120 51 -34 13
-61 25 -59 27 7 6 140 -38 190 -63 l47 -24 0 124 0 125 -38 10 c-21 6 -52 14
-70 17 -18 4 -32 10 -32 15 0 10 55 11 120 1z m-790 -196 c44 -23 88 -63 106
-98 19 -37 18 -46 -8 -43 -13 1 -29 3 -35 4 -7 0 -13 6 -13 12 0 5 6 7 13 3 6
-4 4 2 -6 14 -11 11 -24 19 -31 16 -6 -2 -20 3 -31 12 -11 8 -13 13 -5 9 10
-4 9 -2 -2 8 -10 8 -18 19 -18 25 0 5 -18 9 -40 8 -22 0 -40 2 -40 6 0 3 -20
6 -45 6 -25 0 -45 -4 -45 -9 0 -5 -12 -4 -26 1 -23 9 -25 8 -20 -6 4 -10 -1
-22 -11 -31 -10 -8 -11 -11 -3 -7 13 7 13 5 1 -9 -15 -18 -26 -23 -16 -7 9 14
-8 13 -23 -2 -15 -15 -16 -31 0 -22 7 4 8 3 4 -5 -4 -6 -11 -9 -16 -6 -4 3
-13 -2 -20 -10 -7 -8 -21 -15 -31 -15 -39 0 -17 -20 24 -21 l42 -2 -40 -6
c-32 -5 -41 -11 -43 -28 -2 -13 -8 -23 -13 -23 -27 0 6 -20 34 -21 l32 -1 -29
-8 c-16 -5 -33 -15 -37 -21 -10 -17 -23 74 -15 114 14 72 90 153 166 176 54
16 198 8 240 -13z m-81 -142 c36 -46 23 -94 -29 -113 -55 -19 -100 14 -100 73
0 63 89 90 129 40z m-1013 -127 c84 -112 289 -280 412 -337 62 -30 213 -79
291 -96 98 -21 310 -29 416 -15 169 22 351 83 481 163 92 55 252 196 312 274
31 40 63 75 70 78 12 6 -42 -84 -83 -138 -38 -48 -216 -193 -291 -236 -82 -47
-233 -112 -245 -105 -4 3 -9 0 -11 -6 -2 -6 -17 -11 -33 -11 -17 0 -32 -4 -35
-9 -3 -5 -28 -11 -55 -14 -28 -3 -79 -10 -115 -15 -185 -27 -429 4 -615 77
-84 33 -189 87 -232 120 -24 18 -49 31 -55 27 -6 -4 -8 -3 -5 3 3 5 -30 38
-73 72 -71 57 -186 187 -236 266 l-19 30 31 -25 c17 -14 57 -60 90 -103z
m1689 81 c-26 -20 -33 -38 -15 -38 6 0 10 8 11 18 0 10 3 12 6 5 2 -7 9 -13
15 -13 6 0 6 6 -2 15 -10 12 -10 15 2 15 22 0 29 -12 16 -27 -6 -7 -8 -16 -4
-20 3 -4 13 2 21 13 8 10 15 14 15 9 0 -6 -5 -16 -12 -23 -9 -9 -9 -15 0 -24
10 -10 15 -10 23 2 8 11 12 12 16 2 2 -6 10 -9 15 -6 7 4 8 2 4 -4 -4 -6 -13
-9 -20 -6 -7 3 -16 -2 -19 -10 -9 -22 -27 -20 -27 3 0 10 -7 21 -15 24 -15 7
-29 -8 -21 -21 9 -15 -29 -7 -54 11 -35 25 -47 21 -21 -7 21 -22 21 -24 4 -31
-10 -5 -21 -7 -25 -7 -5 1 -8 -4 -8 -10 -1 -8 -6 -6 -14 5 -12 16 -14 16 -20
1 -9 -24 2 -36 23 -24 10 5 21 6 25 3 3 -3 6 -1 6 6 0 7 4 10 9 6 5 -3 12 -1
16 5 3 5 12 10 18 10 7 -1 -1 -12 -18 -25 -28 -23 -28 -25 -12 -43 17 -19 16
-20 -13 -32 -29 -12 -32 -11 -70 29 -58 60 -77 56 -38 -7 12 -20 17 -33 11
-29 -6 4 -20 22 -31 40 l-19 34 50 34 c28 19 80 60 116 91 36 31 69 54 74 51
4 -2 -4 -14 -18 -25z m-1441 3 c12 -13 13 -20 6 -23 -8 -2 -7 -8 4 -17 14 -12
16 -12 10 3 -8 22 12 21 28 -2 7 -10 43 -40 80 -66 l68 -47 -22 -30 c-23 -31
-33 -37 -25 -16 17 45 17 55 1 61 -14 5 -15 4 -4 -9 10 -12 10 -15 0 -15 -7 0
-10 -6 -7 -14 3 -7 -5 -23 -19 -35 -13 -11 -24 -16 -24 -10 0 5 -4 7 -10 4 -5
-3 -10 -1 -10 4 0 6 -5 11 -11 11 -6 0 -8 -10 -5 -22 3 -13 3 -17 0 -10 -3 6
-11 9 -17 5 -7 -4 -8 0 -4 11 4 10 7 27 7 37 0 19 2 19 22 5 46 -32 74 -13 43
28 -12 16 -15 17 -15 4 0 -9 6 -18 13 -21 6 -2 9 -7 6 -11 -12 -13 -37 23 -33
46 l5 23 -11 -23 c-10 -24 -40 -27 -47 -5 -3 7 4 9 19 5 20 -5 21 -4 10 11 -8
9 -11 25 -7 37 8 26 -7 26 -30 0 -23 -25 -39 -26 -26 -1 6 10 7 21 4 25 -9 9
-34 -15 -26 -27 4 -6 1 -7 -8 -2 -26 15 -49 38 -49 49 0 6 7 0 16 -13 11 -16
20 -19 27 -12 7 7 3 16 -14 30 -13 11 -19 20 -13 21 5 0 15 -5 22 -12 6 -6 15
-8 19 -4 4 4 1 11 -7 16 -11 7 -12 10 -2 10 7 0 10 5 7 10 -11 18 11 11 29 -9z
m386 -235 c149 -53 346 -71 484 -45 32 6 59 9 61 7 1 -2 5 -21 8 -43 5 -28 4
-34 -3 -20 -5 11 -9 14 -9 8 -1 -10 -21 -11 -78 -8 -50 4 -71 2 -58 -4 28 -12
-109 -3 -214 15 -47 7 -86 12 -88 10 -2 -2 -10 -23 -18 -47 -8 -24 -13 -33
-10 -19 15 74 17 110 6 110 -6 0 -11 -5 -11 -11 0 -5 -4 -8 -8 -5 -5 3 -19
-14 -31 -37 l-22 -42 6 35 c4 19 9 45 12 58 5 23 -3 28 -25 14 -7 -5 -10 -15
-7 -23 6 -19 -10 -43 -23 -35 -8 5 -8 15 -2 32 24 62 2 74 -25 14 -22 -48 -41
-43 -21 5 11 24 12 37 4 41 -6 4 -8 3 -5 -2 3 -6 2 -16 -4 -24 -7 -13 -9 -12
-9 2 0 11 -5 15 -15 12 -8 -4 -15 -1 -15 5 0 6 5 11 12 11 6 0 8 3 5 6 -8 8
-37 -14 -37 -27 0 -5 9 -9 20 -9 11 0 20 -4 20 -10 0 -5 -7 -10 -15 -10 -8 0
-18 0 -22 0 -11 -1 -14 48 -3 55 5 3 10 12 10 18 0 7 -26 -15 -56 -48 l-56
-60 38 71 39 72 46 -23 c25 -13 79 -35 119 -49z m863 -30 c9 -18 8 -18 -16 0
-14 11 -22 23 -19 28 3 5 0 6 -5 3 -6 -4 -18 2 -28 13 -10 11 -23 20 -28 20
-6 0 -2 -8 7 -19 15 -16 15 -19 2 -24 -9 -4 -22 1 -31 9 -17 18 -19 11 -5 -17
9 -15 15 -17 30 -9 23 12 30 13 30 1 0 -5 -8 -11 -17 -14 -10 -2 -27 -8 -37
-13 -14 -5 -17 -4 -12 4 4 7 2 12 -4 12 -6 0 -8 5 -5 10 3 6 1 10 -5 10 -6 0
-8 5 -5 10 3 6 1 10 -5 10 -7 0 -9 -13 -5 -37 l7 -38 -21 33 c-11 17 -24 32
-27 32 -6 0 0 -33 12 -64 4 -11 1 -16 -11 -16 -12 0 -16 6 -12 20 5 18 -18 48
-29 38 -3 -3 -6 -24 -7 -47 -1 -42 -13 -54 -23 -23 -3 9 -12 28 -19 42 l-13
25 91 31 c51 17 107 40 126 52 l34 21 20 -42 c11 -23 25 -50 30 -61z m-383
-573 c0 -40 -2 -73 -4 -73 -2 0 -28 16 -56 35 -29 20 -55 33 -59 30 -3 -4 20
-31 52 -61 50 -48 57 -59 57 -93 0 -41 -21 -61 -45 -41 -6 5 -15 7 -18 3 -4
-3 -7 -2 -7 4 0 6 -8 10 -17 9 -29 -2 -43 43 -42 137 1 48 4 87 7 87 3 0 13
-6 21 -14 26 -23 91 -56 91 -47 0 5 -21 22 -47 37 -26 15 -42 29 -35 32 7 2
19 -2 28 -8 8 -7 17 -11 20 -8 2 3 -7 13 -21 22 -26 17 -26 36 1 36 8 0 12 -4
9 -10 -3 -6 1 -7 10 -4 12 5 13 9 4 21 -8 9 -2 8 19 -4 31 -18 32 -20 32 -90z"/>
<path d="M1730 2320 l0 -202 23 6 c12 3 46 10 74 16 l52 11 -6 177 c-3 97 -6
178 -7 178 0 1 -31 5 -68 9 l-68 7 0 -202z"/>
<path d="M1075 1860 c-4 -6 0 -10 7 -10 17 0 -12 -19 -112 -73 -47 -25 -109
-59 -138 -76 -55 -32 -88 -40 -77 -18 3 6 -2 2 -11 -10 -9 -13 -22 -23 -29
-23 -7 0 -16 -7 -19 -16 -4 -9 -9 -14 -13 -11 -3 4 -13 1 -22 -5 -9 -7 -5 0 8
15 19 21 21 27 9 27 -9 0 -21 -13 -28 -30 -15 -36 -27 -38 -33 -7 l-4 22 -2
-22 c0 -15 -8 -23 -18 -23 -23 -1 -64 -30 -42 -30 12 0 12 -2 -1 -10 -20 -13
-33 -12 -24 1 4 7 -13 1 -37 -12 -83 -45 -108 -78 -40 -54 40 14 125 58 148
77 7 5 16 7 20 5 5 -3 35 10 68 29 33 18 85 46 115 62 256 133 310 164 310
182 0 13 -29 20 -35 10z"/>
</g>
</svg>