<?xml version="1.0" standalone="no"?>
<!DOCTYPE svg PUBLIC "-//W3C//DTD SVG 20010904//EN"
 "http://www.w3.org/TR/2001/REC-SVG-20010904/DTD/svg10.dtd">
<svg version="1.0" xmlns="http://www.w3.org/2000/svg"
 width="1024.000000pt" height="1024.000000pt" viewBox="0 0 1024.000000 1024.000000"
 preserveAspectRatio="xMidYMid meet">

<g transform="translate(0.000000,1024.000000) scale(0.100000,-0.100000)"
fill="#000000" stroke="none">
<path d="M5099 9819 c-74 -127 -182 -382 -233 -551 -64 -210 -128 -509 -165
-773 -20 -137 -47 -483 -38 -491 2 -2 46 7 98 21 225 59 332 70 484 46 131
-21 339 -68 369 -83 19 -10 19 -6 13 138 -18 405 -124 962 -244 1284 -69 185
-213 480 -234 480 -5 0 -27 -32 -50 -71z m51 -807 c0 -257 -4 -472 -8 -478 -4
-6 -43 -16 -87 -23 -44 -6 -92 -14 -107 -17 -27 -5 -28 -4 -28 34 0 108 83
514 155 757 26 88 50 170 52 182 17 78 23 -42 23 -455z m-10 -692 c0 -66 -2
-120 -5 -120 -6 0 -187 -28 -229 -35 l-28 -5 6 53 c3 28 8 83 12 120 6 60 9
70 30 78 27 10 131 26 182 28 l32 1 0 -120z"/>
<path d="M4542 9195 c-602 -106 -1227 -368 -1726 -722 -337 -239 -669 -565
-927 -910 -80 -107 -249 -364 -249 -378 0 -12 925 -458 1105 -533 121 -50 304
-122 311 -122 2 0 4 79 4 175 0 132 -3 177 -12 179 -7 3 -58 8 -112 13 -55 4
-101 13 -102 18 -1 6 31 39 73 75 175 152 279 216 527 325 60 27 159 75 220
108 160 87 299 151 481 222 181 71 286 107 293 100 5 -5 8 -3 -168 -76 -177
-72 -316 -145 -460 -242 -153 -102 -417 -301 -486 -366 -86 -82 -83 -59 -86
-546 -3 -426 -3 -430 19 -471 24 -45 82 -100 119 -114 24 -9 24 -12 26 -155 1
-80 2 -153 2 -162 1 -13 -14 -19 -71 -29 -118 -20 -197 -80 -252 -189 -44 -87
-42 -115 44 -755 14 -107 33 -218 41 -247 26 -95 121 -188 217 -214 51 -14
156 -7 215 14 32 11 44 12 47 4 2 -7 13 -122 25 -257 35 -404 57 -544 92 -587
13 -16 -11 -68 -159 -348 -149 -283 -182 -334 -197 -314 -12 15 -329 302 -529
478 -64 56 -117 108 -117 115 0 6 51 65 114 131 82 87 132 131 182 160 60 35
398 238 522 314 23 14 42 30 42 35 0 5 -37 46 -83 91 -66 65 -92 84 -131 95
l-49 13 -21 -29 c-12 -16 -70 -91 -129 -167 -95 -120 -119 -145 -190 -191 -63
-41 -146 -119 -352 -327 -149 -151 -312 -320 -363 -377 -51 -56 -92 -99 -92
-94 0 15 47 148 65 183 10 19 38 62 62 97 25 34 41 62 36 62 -4 0 -48 -13 -98
-29 -49 -16 -164 -52 -255 -81 -274 -86 -295 -92 -302 -99 -9 -8 53 -104 156
-240 101 -133 187 -233 345 -399 69 -74 126 -137 126 -140 0 -4 -20 -65 -43
-135 -50 -151 -76 -255 -96 -392 -22 -146 -24 -185 -9 -185 29 0 272 178 433
318 63 55 116 99 117 98 0 0 -7 -66 -18 -146 -25 -200 -25 -207 8 -213 29 -5
53 4 225 87 l117 57 170 -86 c161 -80 331 -154 430 -185 36 -12 45 -12 49 -1
7 22 123 161 241 289 85 92 117 122 130 116 9 -3 26 -9 39 -12 23 -4 23 -7 15
-71 -12 -104 -8 -422 6 -430 6 -4 55 -13 109 -20 177 -22 162 -14 162 -82 0
-127 42 -237 135 -354 58 -74 439 -461 537 -547 l58 -50 298 299 c377 377 418
436 429 625 l6 87 46 6 c25 4 84 13 131 21 47 8 89 14 94 14 9 0 1 362 -10
451 l-6 45 40 12 40 12 79 -82 c103 -106 263 -292 289 -336 6 -11 307 114 456
188 l178 89 147 -71 c100 -49 157 -72 180 -71 19 1 37 3 40 6 3 3 -4 84 -14
179 -11 95 -18 175 -17 177 2 2 37 -27 77 -66 97 -92 239 -205 360 -287 105
-71 130 -80 123 -44 -3 13 -10 64 -16 113 -19 155 -92 442 -144 566 -5 12 29
53 122 150 179 187 207 219 312 349 111 140 205 279 194 289 -5 4 -101 36
-214 71 -113 35 -257 80 -320 102 -63 21 -117 38 -122 38 -4 0 18 -33 48 -72
51 -69 72 -118 111 -263 6 -25 9 -27 -127 125 -189 212 -600 618 -675 667 -82
53 -93 64 -228 245 -73 99 -108 138 -123 138 -38 0 -119 -49 -178 -108 -89
-89 -89 -83 6 -145 46 -29 110 -69 143 -89 402 -239 414 -248 528 -372 l108
-117 -18 -24 c-10 -13 -88 -86 -173 -161 -162 -143 -328 -295 -414 -377 -27
-26 -53 -44 -58 -39 -17 17 -137 238 -238 436 l-105 206 22 63 c34 95 37 122
78 577 9 96 18 189 21 207 l5 32 37 -16 c20 -8 73 -18 117 -20 103 -6 174 18
240 83 63 60 92 129 110 255 86 618 99 749 85 812 -33 143 -152 249 -296 264
l-57 6 6 126 c4 69 7 145 7 167 0 35 4 43 23 48 35 9 96 64 117 107 19 36 20
60 20 455 0 293 -4 428 -12 456 -18 62 -83 125 -276 269 -344 259 -513 358
-796 470 -60 24 -105 44 -99 46 12 4 241 -79 379 -137 54 -23 212 -98 349
-167 138 -69 302 -149 366 -178 64 -29 147 -72 185 -97 105 -68 316 -240 307
-249 -5 -5 -62 -12 -127 -15 l-118 -7 3 -171 c1 -94 4 -174 6 -178 15 -30
1410 621 1407 656 -3 25 -137 231 -248 379 -186 249 -371 447 -621 664 -485
422 -1090 731 -1770 902 -160 41 -421 89 -430 79 -3 -3 4 -44 15 -92 29 -121
86 -434 99 -541 33 -275 36 -354 36 -900 -1 -641 -2 -654 -80 -812 -71 -143
-174 -241 -317 -301 -56 -24 -76 -27 -178 -26 -133 0 -191 17 -297 85 -118 77
-206 202 -250 353 -38 131 -46 287 -40 786 7 492 14 621 53 890 21 152 91 493
110 543 8 23 -16 22 -184 -8z m-222 -300 c0 -20 22 -120 50 -223 60 -226 123
-519 115 -532 -3 -6 -14 -10 -23 -10 -16 0 -66 -12 -151 -36 -23 -7 -23 -7 -6
20 13 19 16 37 11 65 -13 84 -178 638 -197 664 -11 16 -19 30 -17 31 4 3 199
54 211 55 4 1 7 -15 7 -34z m1735 -51 c102 -29 115 -37 115 -70 0 -30 -4 -30
-127 5 -118 34 -123 36 -123 60 0 39 16 40 135 5z m-2102 -311 c64 -131 137
-283 162 -338 25 -55 52 -107 60 -115 14 -15 5 -20 -85 -57 -83 -34 -100 -38
-100 -24 0 24 -218 472 -243 499 -43 46 -136 16 -152 -50 -4 -17 25 -88 105
-258 62 -129 119 -243 127 -252 14 -15 7 -21 -78 -65 -52 -26 -97 -49 -101
-51 -5 -2 -8 11 -8 29 0 36 -287 639 -322 677 -12 12 -19 22 -16 22 4 0 56 18
118 40 l111 40 10 -29 10 -28 62 61 c54 54 181 135 213 136 6 0 63 -107 127
-237z m2062 157 c48 -23 87 -60 64 -60 -21 0 -143 36 -168 49 -23 13 -28 37
-8 44 16 5 59 -7 112 -33z m755 -61 c63 -29 117 -54 119 -56 2 -1 -2 -10 -9
-18 -7 -9 -26 -87 -41 -173 -15 -86 -39 -224 -54 -307 -14 -82 -29 -184 -33
-225 l-7 -76 -103 54 -104 54 25 27 c19 20 27 43 35 106 5 44 7 83 5 88 -3 4
-36 23 -75 43 -68 34 -71 35 -90 17 -47 -42 -108 -136 -108 -165 l0 -30 -32
20 c-18 11 -66 32 -106 48 l-74 28 26 19 c27 20 312 358 424 502 34 45 62 87
62 94 0 15 -7 18 140 -50z m-790 -127 c72 -24 85 -32 91 -55 7 -25 5 -27 -23
-27 -31 0 -167 37 -181 50 -9 8 9 60 21 60 4 0 46 -13 92 -28z m13 -168 c25
-11 37 -24 37 -37 0 -23 -23 -21 -122 8 -53 15 -58 19 -58 45 l0 28 53 -14
c28 -7 69 -21 90 -30z m-2912 -60 c46 -23 95 -81 192 -223 113 -165 137 -212
137 -271 0 -66 -29 -119 -101 -183 -89 -81 -176 -122 -254 -121 -99 1 -127 23
-253 202 -149 209 -162 235 -162 311 0 55 5 75 30 118 45 78 155 160 247 183
47 11 127 4 164 -16z m4441 -98 c46 -37 47 -40 28 -53 -17 -12 -276 -352 -324
-425 -15 -23 -15 -25 52 -77 37 -30 90 -69 119 -88 l52 -35 -66 -66 -65 -67
-52 48 c-45 43 -266 214 -306 238 -13 7 -11 12 11 31 15 13 62 73 105 133 43
61 131 184 196 274 65 90 118 170 118 178 0 15 29 -5 132 -91z m-5130 -619
c-27 -34 -58 -76 -70 -94 l-22 -31 184 -153 c102 -84 197 -158 212 -164 19 -8
24 -14 16 -19 -7 -4 -35 -42 -64 -84 -62 -94 -58 -89 -66 -75 -13 20 -383 323
-395 323 -12 -1 -79 -97 -93 -132 -9 -26 -22 -22 -68 20 -22 20 -51 44 -63 52
-23 15 -22 16 120 201 78 102 164 219 192 260 l49 74 58 -58 57 -58 -47 -62z
m5728 47 l75 -75 -25 -21 c-14 -11 -105 -93 -203 -181 l-177 -161 57 -59 c32
-32 71 -65 87 -74 l29 -15 -34 -26 c-19 -15 -55 -46 -80 -69 l-46 -43 -23 33
c-14 17 -78 89 -143 160 -66 70 -114 127 -108 127 12 0 55 37 281 244 191 175
231 216 224 228 -3 4 -1 8 3 8 5 0 42 -34 83 -76z m-3700 -78 l0 -34 -67 -12
c-37 -6 -128 -27 -201 -46 -74 -19 -137 -34 -141 -34 -30 3 363 159 402 160 4
0 7 -15 7 -34z m1586 -5 c66 -21 160 -60 209 -85 50 -26 81 -44 71 -41 -47 14
-345 85 -378 90 -36 6 -38 8 -38 40 0 19 4 35 8 35 5 0 63 -17 128 -39z
m-1586 -216 c0 -28 -5 -47 -12 -49 -7 -2 -53 -11 -103 -20 -224 -41 -613 -158
-774 -232 -41 -19 -76 -32 -78 -30 -7 7 128 97 210 141 109 57 234 106 387
150 100 29 324 81 363 84 4 1 7 -19 7 -44z m1555 24 c90 -17 371 -94 446 -123
116 -44 237 -106 330 -168 49 -33 88 -62 86 -65 -2 -2 -48 16 -103 40 -199 88
-577 198 -809 234 l-50 8 -3 48 c-3 45 -2 47 20 43 13 -3 50 -10 83 -17z
m-1541 -236 c3 -21 6 -52 6 -69 l0 -31 -87 -17 c-248 -48 -671 -183 -824 -262
-16 -8 -29 -12 -29 -10 0 8 106 74 146 91 19 8 33 19 30 23 -3 5 -26 17 -52
27 l-47 18 39 24 c62 38 183 98 262 128 l74 29 24 -31 c33 -43 82 -58 126 -40
43 18 69 48 77 89 7 32 8 33 91 50 47 9 101 17 121 17 34 1 37 -1 43 -36z
m1581 19 l90 -17 6 -37 c7 -43 22 -64 62 -85 43 -22 89 -10 127 33 l31 36 92
-36 c51 -20 134 -59 186 -87 101 -55 102 -60 24 -80 -24 -6 -43 -15 -43 -18 0
-4 35 -24 78 -44 42 -20 91 -48 107 -62 27 -22 22 -21 -41 10 -167 82 -559
205 -797 251 l-88 17 7 61 c4 34 9 64 11 69 6 11 49 8 148 -11z m-1917 -36 c5
-26 -26 -50 -45 -35 -14 12 -17 41 -6 53 13 13 48 1 51 -18z m2142 -5 c0 -45
-38 -50 -53 -8 -10 25 0 37 29 37 20 0 24 -5 24 -29z m-1710 -290 l30 -60 -33
-50 c-17 -27 -44 -70 -59 -95 -15 -25 -31 -46 -36 -46 -4 0 -52 37 -107 82
-98 81 -101 82 -169 90 -39 4 -71 6 -72 5 -1 -1 -8 -66 -15 -144 l-12 -141
-24 9 c-13 5 -61 26 -106 48 -95 46 -167 67 -254 76 l-63 6 5 -131 c3 -76 1
-130 -4 -130 -5 0 -50 9 -100 21 -80 18 -91 23 -92 42 0 12 -2 37 -4 55 -2 30
2 37 44 68 103 76 367 186 611 254 92 26 390 96 422 99 4 1 21 -26 38 -58z
m1391 30 c348 -72 734 -208 894 -315 l60 -41 0 -54 0 -53 -70 -20 c-38 -10
-84 -21 -102 -24 l-31 -6 1 123 2 124 -40 3 c-75 7 -168 -17 -285 -74 -62 -30
-115 -53 -116 -51 -2 2 -9 53 -15 113 -6 60 -14 122 -18 138 -7 29 -8 30 -70
27 l-63 -3 -101 -84 c-55 -46 -105 -84 -111 -84 -7 0 -38 43 -70 95 l-58 96
28 54 c34 64 32 63 165 36z m-839 -466 l61 -54 61 54 c60 54 62 55 121 55 l60
-1 -51 -47 c-28 -26 -82 -75 -120 -109 l-70 -62 -105 93 c-146 130 -144 126
-74 126 55 0 59 -2 117 -55z m-128 -130 l188 -175 58 50 c31 27 63 57 71 66 7
9 68 65 136 126 l124 110 117 -12 c248 -25 593 -98 792 -167 97 -34 245 -102
237 -109 -3 -3 -51 6 -108 20 -56 14 -111 26 -123 26 -20 0 -20 -1 4 -20 14
-11 71 -47 128 -80 l102 -61 0 -49 c0 -28 -4 -50 -8 -50 -4 0 -57 32 -118 72
-60 39 -169 109 -243 154 l-135 82 -32 -31 -33 -30 57 -36 c81 -50 154 -106
345 -266 162 -135 167 -141 167 -177 0 -25 -5 -38 -13 -38 -18 0 -108 31 -225
77 -91 36 -95 39 -119 88 -81 160 -250 265 -427 265 -178 0 -322 -78 -414
-224 -34 -53 -50 -67 -126 -110 -72 -40 -84 -50 -71 -60 9 -6 32 -76 54 -166
21 -85 73 -285 114 -445 42 -159 79 -307 83 -328 l6 -38 -38 3 -38 3 -57 215
c-31 118 -74 279 -95 357 l-39 143 -33 0 c-31 0 -33 -2 -28 -27 3 -16 12 -125
21 -243 19 -263 26 -340 30 -340 2 0 15 4 29 9 31 13 43 -1 55 -62 8 -46 8
-46 -13 -32 -11 8 -27 15 -35 15 -19 0 -61 -39 -61 -57 0 -10 -23 -13 -95 -13
-92 0 -96 1 -107 25 -13 30 -65 50 -84 34 -16 -13 -18 7 -8 61 6 30 9 31 41
25 23 -4 35 -2 38 7 4 12 35 324 50 516 l7 82 -34 0 -34 0 -21 -82 c-11 -46
-53 -208 -93 -360 l-74 -278 -42 0 -42 0 54 208 c30 114 84 326 120 472 36
146 67 273 70 282 3 9 14 18 26 20 15 2 -6 18 -74 58 -79 45 -99 62 -118 97
-30 57 -133 153 -196 183 -144 68 -297 68 -441 -1 -67 -32 -173 -141 -206
-211 -21 -46 -34 -61 -64 -73 -71 -30 -285 -106 -289 -103 -2 2 -6 22 -9 43
-5 40 -5 41 72 105 179 151 396 320 443 347 27 15 50 31 50 34 0 3 -14 16 -32
29 l-31 23 -51 -28 c-60 -33 -295 -181 -379 -237 -32 -22 -61 -38 -63 -35 -6
5 -8 97 -3 101 2 2 59 36 127 76 67 40 125 76 127 80 6 10 -152 -24 -214 -45
-45 -15 -58 -14 -47 3 10 17 214 98 336 135 201 61 622 139 790 146 20 1 68
-38 214 -174z m233 169 c-9 -9 -97 -10 -97 -1 0 4 23 7 52 7 28 0 48 -3 45 -6z
m-1201 -896 c84 -257 377 -378 621 -258 35 17 85 53 113 80 27 27 50 43 49 37
0 -7 -10 -59 -23 -117 l-22 -105 -110 -39 c-60 -22 -110 -40 -111 -40 0 -1 5
-118 13 -260 8 -143 12 -262 9 -265 -3 -3 -67 -25 -143 -51 l-137 -45 3 -55
c3 -60 27 -691 37 -967 4 -95 3 -173 -1 -173 -4 0 -30 16 -59 35 l-52 34 -7
93 c-11 171 -25 440 -46 903 -11 253 -23 466 -25 473 -3 9 -48 12 -180 12
-133 0 -175 3 -175 13 0 6 -3 28 -6 47 l-6 35 246 -3 246 -3 0 -57 c0 -56 17
-243 23 -248 1 -2 35 7 75 18 l72 21 -1 46 c-1 25 -6 123 -12 216 l-12 170
-335 5 -335 5 -6 30 c-17 80 -26 75 136 75 l145 0 0 44 c0 27 -5 46 -12 49 -7
2 -79 2 -160 -1 l-148 -5 0 26 c0 14 -3 32 -6 41 -5 14 7 16 94 16 56 0 103 3
105 8 3 4 3 28 0 55 l-6 47 -102 0 c-85 0 -104 3 -109 16 -10 27 -7 64 7 64 6
1 50 7 97 14 47 8 120 14 162 15 l76 1 18 -52z m2576 36 c62 -8 113 -16 114
-17 1 -1 -1 -19 -4 -40 l-4 -38 -104 3 -104 3 -6 -42 c-10 -71 -7 -73 102 -73
95 0 96 0 90 -22 -3 -13 -6 -31 -6 -42 0 -18 -9 -18 -157 -15 l-158 4 -3 -47
-3 -48 149 0 149 0 -10 -47 c-6 -27 -16 -51 -21 -55 -6 -4 -156 -8 -332 -8
l-322 0 -8 -127 c-5 -71 -9 -168 -9 -217 l0 -89 60 -23 c33 -13 65 -23 71 -23
8 -1 14 49 19 154 l7 155 250 0 249 0 -7 -37 c-3 -21 -9 -41 -13 -45 -4 -4
-85 -9 -181 -10 l-175 -3 -7 -155 c-4 -85 -12 -267 -17 -405 -14 -326 -41
-829 -47 -880 -4 -36 -11 -43 -60 -74 -30 -18 -57 -31 -59 -29 -4 4 7 314 31
837 8 189 13 345 10 348 -6 7 -143 57 -215 79 l-63 19 8 175 c5 96 9 217 9
269 l0 93 -103 37 c-57 20 -107 43 -112 51 -4 8 -11 35 -15 60 -4 25 -13 67
-21 94 -22 77 -18 79 41 20 99 -99 247 -148 382 -126 75 13 169 55 227 104 51
42 111 136 127 198 l13 50 63 0 c34 0 113 -7 175 -16z m-3151 -120 c10 -9 25
-46 33 -83 15 -66 24 -113 71 -381 14 -80 37 -200 51 -268 24 -114 25 -126 11
-160 -8 -21 -13 -50 -10 -65 5 -27 5 -27 -55 -27 l-61 0 6 -36 c6 -34 5 -35
-23 -28 -41 9 -83 52 -93 94 -5 19 -12 73 -15 119 -8 95 -58 470 -81 601 -23
133 -21 173 15 214 43 48 110 57 151 20z m3606 1 c14 -9 31 -33 40 -53 14 -34
12 -54 -26 -306 -22 -149 -47 -341 -56 -426 -9 -85 -21 -167 -27 -181 -14 -39
-59 -78 -97 -85 -31 -7 -33 -6 -22 14 22 42 15 51 -49 58 -50 5 -58 9 -51 22
6 10 3 32 -7 58 -15 41 -15 51 6 161 12 65 45 246 72 402 28 156 58 297 66
313 8 16 25 33 37 38 29 13 83 5 114 -15z m-532 -756 c3 -4 3 -25 -1 -49 -7
-42 -7 -42 -45 -37 l-37 5 -6 -82 c-4 -44 -11 -171 -16 -281 -6 -110 -15 -294
-21 -410 l-12 -210 -38 -64 -39 -65 0 135 c0 74 5 216 10 315 5 100 12 305 15
455 4 151 9 280 11 288 3 10 24 12 88 10 47 -2 87 -7 91 -10z m-2491 -251 c4
-139 14 -408 22 -596 9 -189 13 -346 10 -349 -3 -3 -11 7 -18 23 -7 16 -25 49
-39 74 -30 51 -29 34 -54 560 -8 168 -18 338 -21 378 l-6 72 -39 0 c-36 0 -39
2 -39 29 0 16 -3 36 -6 45 -5 14 6 16 88 16 l95 0 7 -252z m1624 14 c89 -27
251 -107 259 -128 12 -33 -5 -31 -302 28 -125 25 -183 31 -346 35 -235 7 -359
-4 -599 -53 -96 -20 -185 -38 -197 -40 -18 -3 -23 0 -23 15 0 25 108 91 200
121 140 47 164 49 560 46 354 -2 379 -3 448 -24z m-518 -267 l0 -65 -74 0 -74
0 -16 47 c-25 72 -25 72 57 76 39 1 80 4 90 5 15 2 17 -7 17 -63z m221 55 c33
0 37 -17 17 -81 l-11 -39 -72 0 c-50 0 -72 4 -73 13 -1 6 -5 36 -8 66 l-7 54
63 -6 c35 -4 76 -7 91 -7z m-466 -61 c4 -28 3 -55 -1 -59 -5 -5 -44 -10 -88
-12 l-78 -3 -14 45 c-7 24 -12 46 -10 48 3 3 140 27 173 31 6 0 14 -21 18 -50z
m728 25 c20 -4 26 -11 23 -22 -2 -10 -8 -32 -11 -50 l-7 -33 -56 6 c-104 11
-123 15 -115 28 4 6 6 26 5 45 -2 18 0 36 2 41 5 7 93 -1 159 -15z m-983 -33
c0 -5 3 -22 6 -39 l6 -30 -63 -7 c-35 -3 -71 -8 -80 -11 -10 -3 -19 3 -22 13
-2 10 -8 25 -12 35 -5 13 5 19 57 31 74 18 108 20 108 8z m1168 -5 c40 -7 74
-15 76 -17 2 -2 2 -16 -1 -31 -5 -25 -10 -28 -42 -28 -20 0 -59 3 -86 6 l-50
6 3 39 c5 44 1 43 100 25z m-3 -244 l60 -7 -40 -22 c-59 -31 -189 -69 -285
-85 -56 -8 -179 -13 -360 -13 -285 0 -357 7 -495 47 -78 23 -176 69 -159 75
61 21 1126 25 1279 5z m-1294 -207 c104 -36 277 -81 389 -102 71 -13 145 -17
290 -16 232 0 341 17 588 91 l162 49 0 -232 c0 -128 -3 -253 -6 -278 -6 -43
-9 -46 -53 -64 -25 -10 -49 -19 -53 -21 -5 -2 -8 96 -8 217 l0 221 -115 0
-115 0 0 -45 c0 -44 1 -45 33 -45 17 0 49 -3 70 -6 l37 -7 0 -184 0 -184 -33
-14 c-18 -7 -45 -17 -60 -20 l-27 -7 -2 173 -3 174 -422 3 -423 2 0 -176 c0
-162 -1 -175 -17 -170 -10 2 -37 10 -59 17 l-41 11 2 192 c1 138 5 191 13 192
7 1 39 2 72 3 l60 1 0 45 0 45 -120 0 -120 0 0 -220 c0 -121 -2 -220 -5 -220
-3 0 -28 11 -55 25 l-50 25 0 124 c0 67 -3 191 -7 274 -3 84 -4 152 -1 152 2
0 38 -11 79 -25z m717 -445 c22 0 22 -2 22 -125 l0 -125 -65 0 -65 0 0 123 c0
68 3 127 8 131 4 4 23 5 42 2 19 -3 45 -6 58 -6z m-228 -126 l0 -127 -37 7
c-21 3 -48 6 -60 6 -23 0 -23 2 -23 120 l0 120 60 0 60 0 0 -126z m490 12 c0
-63 -3 -117 -7 -119 -5 -3 -32 -8 -60 -12 l-53 -7 0 126 0 126 60 0 60 0 0
-114z m-1388 -35 c81 -54 310 -188 349 -203 3 -2 8 -212 10 -468 4 -461 4
-465 -16 -462 -58 10 -838 334 -894 372 l-22 15 68 120 c38 66 98 173 133 238
36 64 68 117 72 117 5 0 37 -18 71 -39 34 -22 122 -71 196 -109 l134 -69 4
-94 c2 -52 1 -100 -2 -106 -3 -9 -29 -2 -87 24 -46 20 -85 39 -88 41 -3 2 11
16 30 32 19 16 33 30 30 33 -12 10 -209 107 -218 107 -8 0 -112 -196 -112
-211 0 -16 547 -249 583 -249 6 0 7 61 3 168 -3 92 -7 220 -8 284 l-1 118
-111 62 c-210 117 -318 189 -311 207 10 26 76 141 80 141 3 0 51 -31 107 -69z
m2329 -24 c24 -46 28 -62 19 -73 -13 -15 -202 -128 -325 -194 -44 -24 -81 -44
-83 -45 -5 -4 -21 -569 -17 -574 3 -2 38 8 77 24 89 34 510 214 516 220 4 4
-106 215 -112 215 -5 0 -155 -72 -195 -94 l-33 -18 28 -29 c15 -16 26 -31 23
-33 -8 -8 -125 -64 -146 -70 -23 -7 -23 -6 -23 88 0 52 3 102 6 110 4 9 70 48
148 87 77 40 165 87 194 105 29 19 56 34 61 34 8 0 250 -438 258 -469 4 -15
-24 -31 -179 -99 -203 -89 -477 -203 -608 -252 -47 -17 -95 -35 -107 -40 l-23
-10 0 468 0 468 58 28 c85 41 268 149 342 201 74 52 69 54 121 -48z m-3626
-24 c237 -207 453 -391 508 -432 31 -24 57 -51 57 -60 0 -19 -93 -174 -107
-178 -6 -2 -34 14 -64 37 -29 22 -56 40 -60 40 -6 0 -23 -18 -86 -93 -13 -15
-22 -27 -20 -28 1 0 10 -2 19 -4 20 -4 138 -94 138 -106 0 -4 -18 -37 -41 -73
l-41 -66 -28 20 c-15 11 -57 46 -92 77 -78 70 -224 194 -293 248 -69 54 -313
263 -318 272 -3 5 29 55 70 113 41 58 86 123 100 145 37 58 135 185 142 185 3
0 56 -44 116 -97z m4932 35 c60 -77 253 -363 253 -375 0 -8 -266 -242 -345
-303 -18 -14 -66 -55 -106 -92 -107 -95 -263 -228 -269 -228 -4 0 -76 116 -88
141 -1 3 23 25 54 49 40 30 55 38 50 24 -5 -15 -1 -13 20 7 l26 27 -30 43
c-34 50 -82 98 -82 82 0 -6 -24 -29 -53 -51 l-53 -40 -36 57 c-45 70 -68 116
-68 133 1 7 62 65 137 128 75 63 223 193 330 288 107 94 198 172 203 172 4 0
30 -28 57 -62z m-2931 -321 c2 -2 -18 -25 -46 -51 -48 -45 -49 -47 -27 -55 75
-28 86 -26 217 49 34 20 83 24 128 11 21 -5 11 -15 -85 -77 -59 -39 -145 -90
-190 -113 -46 -23 -83 -45 -83 -50 0 -9 126 -96 153 -107 16 -6 112 52 205
124 40 31 81 63 91 69 15 11 31 3 120 -63 163 -119 196 -138 223 -123 22 12
138 99 138 105 0 1 -65 39 -145 83 -79 45 -150 88 -157 95 -7 7 -26 21 -42 31
l-29 19 24 7 c56 16 91 9 173 -36 92 -50 124 -55 151 -25 18 20 18 21 -31 64
l-49 44 40 10 c22 6 52 14 68 18 l27 6 0 -531 c0 -292 -2 -531 -5 -531 -35 0
-308 133 -426 209 l-63 39 -56 -38 c-85 -58 -233 -135 -337 -174 -51 -20 -95
-36 -98 -36 -7 0 -6 858 1 967 l7 90 49 -13 c28 -7 52 -15 54 -17z m3039 -542
c51 -85 154 -320 155 -353 0 -8 -17 8 -38 35 -21 26 -68 75 -104 108 -36 33
-70 69 -76 81 -13 24 -5 67 11 57 13 -8 1 12 -35 59 l-29 38 27 35 c14 19 27
35 29 35 1 0 28 -43 60 -95z m-5233 58 c34 -33 34 -37 3 -75 -14 -16 -25 -39
-25 -51 0 -18 -2 -19 -10 -7 -7 11 -10 2 -10 -31 0 -43 -4 -49 -67 -112 -38
-36 -81 -84 -97 -106 -16 -23 -32 -39 -34 -36 -6 6 44 146 85 234 31 70 113
210 122 211 3 0 18 -12 33 -27z m1098 -173 c118 -50 225 -95 238 -100 l23 -10
-29 -25 c-17 -14 -34 -25 -38 -25 -5 0 -48 -40 -96 -89 -49 -48 -99 -93 -112
-100 -21 -12 -40 -5 -198 72 -96 46 -178 88 -181 94 -3 5 4 25 17 44 12 19 49
80 81 137 33 56 64 100 70 98 5 -3 107 -46 225 -96z m3257 -15 c67 -110 96
-165 91 -170 -10 -9 -225 -113 -292 -141 l-79 -34 -46 38 c-25 20 -71 62 -103
92 -31 30 -75 68 -97 84 -23 17 -38 33 -34 37 5 3 98 43 208 88 110 45 218 90
240 100 22 11 43 16 46 12 3 -3 33 -51 66 -106z m-1637 -303 c74 -37 183 -88
243 -111 88 -36 108 -48 113 -68 6 -23 0 -91 -9 -100 -8 -7 -228 85 -362 151
l-130 65 -80 -44 c-82 -45 -344 -159 -389 -171 -26 -6 -26 -6 -26 55 0 69 -4
66 133 120 86 34 283 130 318 154 13 10 30 17 39 17 8 0 76 -31 150 -68z m-15
-267 c61 -25 161 -64 222 -85 156 -54 149 -48 144 -110 l-3 -52 -42 5 c-46 7
-215 58 -346 105 l-85 31 -8 -22 c-8 -22 -9 -22 -23 -2 -15 20 -17 19 -152
-27 -149 -52 -307 -92 -322 -83 -6 3 -10 28 -10 55 0 36 4 49 18 55 9 3 67 24
127 45 117 41 290 110 321 129 23 13 23 13 159 -44z m-191 -335 c29 -27 55
-50 57 -50 3 0 29 23 59 50 30 28 62 50 72 50 23 0 132 -54 175 -86 17 -13 34
-24 36 -24 2 0 21 14 42 30 37 29 75 40 75 21 0 -11 -264 -294 -374 -400 l-76
-73 -166 163 c-92 90 -195 197 -230 238 -88 102 -86 115 6 56 53 -34 54 -35
74 -16 23 21 162 90 184 90 7 1 37 -21 66 -49z"/>
<path d="M6629 8408 c-58 -68 -89 -110 -89 -120 0 -8 100 -62 104 -56 5 7 36
221 33 225 -2 2 -24 -20 -48 -49z"/>
<path d="M2864 8086 c-39 -39 -45 -80 -17 -124 62 -98 199 -285 221 -303 40
-31 98 -10 145 53 16 22 18 31 9 56 -14 40 -220 330 -243 342 -37 20 -80 11
-115 -24z"/>
<path d="M5650 6228 l0 -69 28 14 c15 8 70 29 122 48 l95 33 -55 13 c-30 6
-85 16 -122 21 l-68 9 0 -69z"/>
<path d="M4505 6275 c-105 -22 -102 -21 -85 -28 8 -3 56 -20 105 -38 50 -17
96 -34 103 -36 9 -4 12 11 12 56 l0 61 -37 -1 c-21 0 -65 -6 -98 -14z"/>
<path d="M4752 6208 l3 -55 194 -181 194 -182 31 26 c17 15 90 81 161 148 72
66 150 138 173 158 38 34 42 43 42 83 0 30 -4 45 -13 45 -13 0 -110 -78 -279
-227 -101 -89 -122 -103 -130 -85 -5 11 -286 256 -336 293 l-43 32 3 -55z"/>
<path d="M3320 5318 c0 -18 4 -49 10 -68 5 -19 26 -147 45 -284 20 -137 40
-258 46 -267 15 -28 11 -58 -13 -89 -30 -41 -30 -106 -1 -130 46 -37 114 9 94
64 -6 14 -18 26 -28 26 -15 1 -14 4 6 20 13 11 29 20 37 20 22 0 25 16 10 57
-7 21 -23 95 -35 163 -39 223 -92 484 -102 502 -6 11 -21 18 -39 18 -27 0 -30
-3 -30 -32z"/>
<path d="M6907 5347 c-9 -8 -23 -61 -36 -137 -47 -289 -82 -478 -96 -519 -21
-61 -19 -68 15 -86 l31 -16 -21 -28 c-26 -38 -25 -55 5 -75 37 -24 73 -21 87
9 6 14 15 25 20 25 18 0 7 41 -24 86 l-31 46 16 47 c9 25 21 91 27 146 6 55
20 156 32 225 11 69 21 161 22 204 1 67 -2 79 -16 81 -9 2 -23 -2 -31 -8z"/>
<path d="M7002 5295 c0 -16 2 -22 5 -12 2 9 2 23 0 30 -3 6 -5 -1 -5 -18z"/>
<path d="M3902 4525 c-1 -16 3 -48 7 -70 l9 -40 0 40 c0 22 -4 54 -8 70 l-8
30 0 -30z"/>
<path d="M2640 2788 c-16 -24 -43 -61 -60 -84 -16 -23 -30 -47 -30 -55 1 -8
23 -31 50 -52 l48 -37 32 40 c17 22 36 40 41 40 12 0 88 -53 89 -62 0 -4 -14
-30 -31 -58 -17 -28 -30 -52 -28 -54 62 -47 103 -76 109 -76 8 0 31 30 113
147 l36 52 -117 89 c-123 93 -207 152 -216 152 -3 0 -19 -19 -36 -42z"/>
<path d="M7530 2777 c-47 -34 -122 -91 -167 -126 l-81 -64 57 -82 c31 -44 64
-92 73 -105 l17 -23 55 44 c30 24 55 47 56 51 0 4 -14 31 -32 60 -30 48 -31
52 -14 62 10 6 31 21 46 34 l28 22 38 -45 39 -45 49 43 50 44 -64 94 c-34 52
-63 95 -64 96 -1 1 -40 -26 -86 -60z"/>
<path d="M5170 2442 c0 -5 20 -36 44 -69 37 -48 104 -111 248 -231 14 -12 23
-9 72 24 31 20 56 38 56 39 0 1 -27 21 -60 44 l-60 43 -18 -22 -18 -22 -88 66
c-49 37 -108 83 -132 103 -24 19 -44 31 -44 25z"/>
<path d="M5010 2359 c-117 -99 -143 -114 -160 -94 -7 8 -18 15 -26 15 -19 0
-121 -63 -121 -75 1 -5 23 -24 51 -42 59 -37 56 -38 159 49 116 98 211 207
195 223 -2 2 -46 -32 -98 -76z"/>
<path d="M5095 2254 c-101 -89 -210 -166 -306 -215 -87 -45 -119 -69 -90 -69
5 0 37 -23 70 -51 l60 -50 48 27 c50 29 147 104 222 171 l45 39 103 -86 c56
-47 128 -101 158 -119 l55 -33 32 26 c18 14 50 41 71 59 l39 34 -109 60 c-114
64 -203 126 -293 203 l-55 48 -50 -44z"/>
<path d="M3436 1993 c-20 -37 -36 -71 -36 -76 0 -11 139 -75 180 -83 21 -5 30
-3 30 6 0 7 16 33 37 58 l36 44 -24 19 c-26 21 -169 99 -181 99 -4 0 -23 -30
-42 -67z"/>
<path d="M6708 2009 c-54 -28 -98 -55 -98 -59 0 -5 17 -34 38 -65 34 -51 40
-55 67 -50 17 3 65 22 107 42 l77 36 -16 31 c-23 46 -67 116 -73 116 -3 -1
-49 -23 -102 -51z"/>
<path d="M4937 1098 l-58 -31 48 -49 c26 -27 87 -85 134 -129 l87 -79 131 126
c72 70 131 129 131 133 -1 3 -28 18 -60 33 l-60 27 -28 -26 c-49 -46 -109 -93
-118 -93 -5 0 -40 27 -77 60 -38 33 -69 60 -70 60 -1 -1 -28 -15 -60 -32z"/>
<path d="M3109 9141 c-24 -24 -29 -38 -29 -76 0 -65 39 -105 102 -105 52 0 85
21 104 65 43 105 -96 196 -177 116z"/>
<path d="M7029 9141 c-24 -24 -29 -38 -29 -76 0 -38 5 -52 29 -76 41 -40 106
-41 145 -2 32 31 40 61 32 108 -15 76 -119 103 -177 46z"/>
<path d="M2542 8757 c-30 -32 -29 -81 3 -112 54 -55 145 -12 145 69 0 60 -104
90 -148 43z"/>
<path d="M7633 8765 c-29 -21 -38 -66 -19 -103 39 -75 156 -45 156 41 0 64
-81 101 -137 62z"/>
<path d="M1900 8519 c0 -12 45 -103 88 -179 77 -136 154 -260 162 -260 12 0
148 109 183 147 l28 31 -103 64 c-110 70 -346 208 -353 208 -3 0 -5 -5 -5 -11z"/>
<path d="M8260 8457 c-230 -135 -319 -192 -320 -203 0 -23 203 -186 215 -172
1 2 34 57 72 123 109 187 165 294 161 311 -2 11 -35 -4 -128 -59z"/>
<path d="M1784 8053 c-41 -8 -69 -50 -69 -103 0 -82 66 -127 140 -96 58 25 83
105 49 155 -15 21 -73 53 -91 50 -4 -1 -18 -4 -29 -6z"/>
<path d="M8440 8053 c-8 -3 -27 -17 -42 -31 -64 -59 -17 -177 71 -177 47 0 96
40 106 85 16 74 -65 148 -135 123z"/>
<path d="M5220 7903 l0 -69 -75 -2 -75 -2 0 65 c0 64 0 65 -27 65 -16 0 -44
-3 -64 -6 l-37 -6 -4 -69 c-2 -37 -6 -70 -8 -72 -3 -3 -29 -8 -58 -12 l-53 -7
2 63 c2 35 -2 64 -7 64 -5 0 -39 -8 -75 -18 l-66 -18 -7 -67 c-9 -99 -7 -152
5 -152 6 0 54 11 107 24 235 60 324 71 427 56 86 -12 301 -60 378 -84 l47 -14
0 119 c0 107 -2 119 -17 119 -10 0 -45 9 -77 20 -33 11 -62 17 -65 14 -3 -3
-6 -20 -7 -37 -3 -88 -2 -85 -31 -80 -77 12 -73 7 -73 82 l0 69 -42 7 c-24 3
-55 8 -70 11 l-28 6 0 -69z"/>
<path d="M1473 7663 c-13 -2 -36 -18 -53 -34 -25 -26 -30 -38 -30 -81 0 -44 4
-54 34 -84 27 -27 42 -34 74 -34 23 0 52 4 66 10 33 12 66 66 66 105 0 43 -35
94 -75 111 -35 14 -42 15 -82 7z"/>
<path d="M8744 7659 c-70 -20 -102 -101 -67 -169 24 -46 57 -62 116 -57 56 5
92 33 106 84 26 92 -60 170 -155 142z"/>
<path d="M5130 7643 c-134 -18 -192 -28 -295 -54 -176 -43 -175 -43 -175 -96
0 -49 0 -49 79 -17 19 8 89 29 155 47 99 26 139 32 221 31 114 0 261 -28 415
-78 l100 -32 0 52 0 51 -72 22 c-140 41 -373 82 -428 74z"/>
<path d="M4815 7356 c-44 -18 -97 -41 -117 -51 l-38 -19 0 -95 c1 -185 46
-314 152 -427 44 -46 81 -74 135 -101 67 -33 86 -38 169 -41 113 -5 203 18
288 75 61 42 136 125 167 185 58 113 92 428 47 428 -6 0 -56 18 -110 40 -55
22 -102 40 -104 40 -3 0 17 -27 44 -59 28 -33 63 -86 78 -118 26 -52 29 -68
29 -158 0 -89 -3 -107 -28 -160 -68 -146 -233 -243 -397 -232 -271 17 -448
258 -371 506 23 74 71 152 119 191 46 38 36 37 -63 -4z"/>
<path d="M5102 7379 c-111 -15 -211 -90 -263 -197 -34 -72 -32 -188 5 -262 53
-106 138 -171 257 -196 64 -13 77 -13 127 2 78 22 121 46 164 91 89 92 121
232 79 343 -29 78 -98 153 -174 189 -70 33 -118 40 -195 30z m43 -101 c3 -18
5 -127 3 -243 l-3 -210 -35 3 c-59 6 -129 42 -169 89 -118 134 -46 348 129
384 64 13 69 11 75 -23z"/>
<path d="M990 7280 c0 -14 136 -144 301 -287 l146 -127 -57 -120 c-57 -119
-114 -265 -107 -272 4 -4 120 -23 405 -69 184 -29 690 -123 702 -130 5 -3 16
19 26 47 9 29 36 103 60 164 24 61 44 115 44 121 0 5 -93 54 -207 108 -115 54
-341 165 -503 245 -305 152 -458 218 -666 289 -128 43 -144 47 -144 31z m730
-473 c23 -21 40 -40 38 -42 -4 -4 -119 12 -124 18 -6 6 29 67 37 64 4 -1 26
-19 49 -40z m155 -152 c149 -30 411 -98 423 -110 3 -2 -2 -25 -9 -50 -16 -53
1 -52 -179 -11 -134 31 -265 57 -440 86 -68 12 -126 23 -128 25 -2 2 5 27 15
55 l18 52 65 -6 c36 -4 142 -22 235 -41z"/>
<path d="M9170 7254 c-213 -72 -417 -159 -683 -293 -149 -76 -370 -184 -489
-241 -120 -57 -218 -106 -218 -110 0 -3 17 -48 38 -100 22 -52 49 -125 61
-162 13 -38 27 -68 33 -68 6 0 126 22 267 49 141 27 386 70 545 95 159 26 292
48 294 51 8 7 -23 86 -94 239 l-68 148 41 37 c179 160 409 377 406 384 -7 12
-23 8 -133 -29z m-510 -465 c0 -8 -118 -27 -125 -21 -2 3 15 22 38 43 l42 38
22 -27 c13 -15 23 -30 23 -33z m73 -142 c11 -26 17 -50 15 -53 -3 -3 -86 -18
-184 -34 -182 -30 -306 -55 -448 -91 -43 -11 -84 -18 -91 -15 -7 2 -15 17 -18
33 -3 15 -9 36 -12 45 -6 14 7 21 77 42 181 55 535 126 607 123 31 -2 37 -7
54 -50z"/>
<path d="M994 6768 c-40 -19 -59 -103 -31 -139 66 -86 200 -15 166 88 -17 53
-82 77 -135 51z"/>
<path d="M9203 6770 c-36 -15 -56 -55 -50 -98 13 -80 101 -109 158 -53 77 77
-5 192 -108 151z"/>
<path d="M7705 6455 c8 -37 66 -188 71 -183 2 2 -15 51 -37 108 -22 58 -37 92
-34 75z"/>
<path d="M2740 6430 c-15 -28 -81 -193 -78 -195 6 -5 353 -83 356 -80 5 4 43
197 40 199 -2 1 -52 17 -113 36 -60 18 -129 39 -152 46 -39 12 -44 11 -53 -6z"/>
<path d="M7435 6416 c-55 -18 -122 -39 -148 -46 -30 -9 -47 -20 -47 -30 1 -8
11 -54 23 -101 l22 -86 173 41 c120 29 172 45 172 55 0 18 -81 201 -89 201 -3
-1 -51 -15 -106 -34z"/>
<path d="M550 6366 c0 -17 146 -100 411 -233 l190 -96 -6 -37 -6 -38 228 -6
c693 -19 1068 -51 1291 -111 98 -26 258 -90 269 -108 7 -12 -118 -5 -527 28
-394 33 -603 44 -987 52 l-323 6 0 -124 0 -124 -132 -103 c-73 -56 -195 -149
-270 -207 -76 -59 -138 -109 -138 -113 0 -11 49 -48 287 -218 120 -86 225
-163 235 -172 11 -12 21 -56 32 -146 9 -72 19 -132 21 -135 7 -6 276 21 785
79 234 26 540 60 680 74 140 15 282 30 315 34 l59 7 -199 170 c-110 94 -206
174 -213 179 -8 5 -21 1 -32 -9 -13 -12 -43 -19 -92 -23 l-73 -5 52 59 c28 32
67 73 85 89 l34 30 -231 227 -230 227 45 1 c41 0 53 -6 140 -76 52 -42 139
-110 193 -151 99 -75 99 -75 120 -56 93 82 406 342 424 351 16 9 35 9 73 1
l51 -11 92 89 c69 66 88 90 77 95 -26 12 -69 52 -98 92 l-29 39 -634 127
c-689 138 -1272 236 -1493 250 -78 5 -216 10 -308 10 -138 0 -168 -3 -168 -14z
m1266 -703 c161 -143 534 -494 534 -502 0 -4 -37 -43 -82 -86 -46 -44 -171
-166 -279 -271 -216 -212 -246 -231 -306 -201 -62 32 -426 324 -421 338 6 16
144 119 160 119 10 0 49 26 87 58 l69 57 -31 33 -31 33 44 39 c25 21 52 39 61
40 9 0 24 9 34 20 10 12 24 19 31 18 6 -2 60 -50 120 -107 l108 -103 -80 -77
c-44 -42 -92 -87 -106 -100 l-27 -23 -40 32 -40 32 -29 -20 c-60 -44 -60 -45
24 -114 42 -35 91 -74 110 -87 l33 -24 38 33 c21 18 111 105 200 193 158 156
162 161 145 180 -9 11 -111 105 -225 209 l-209 189 -47 -43 c-25 -24 -97 -90
-159 -148 l-114 -104 32 -26 31 -25 -23 -21 c-13 -11 -82 -67 -155 -123 l-132
-102 -83 63 c-46 35 -100 74 -119 87 l-36 24 111 93 111 92 38 -21 39 -22 20
28 c11 15 95 94 186 176 92 82 194 174 227 204 33 31 63 56 66 57 3 0 55 -44
115 -97z m824 -62 c23 -6 21 -10 -42 -54 -36 -26 -72 -47 -79 -47 -8 0 -41 25
-74 55 l-60 54 115 0 c63 -1 126 -4 140 -8z m-252 -713 c-3 -7 -42 -43 -88
-80 -59 -49 -91 -68 -111 -68 -16 0 -29 2 -29 5 0 9 141 140 159 147 29 12 73
9 69 -4z m147 -38 c10 -12 34 -30 53 -42 45 -28 31 -34 -91 -40 l-99 -5 53 53
c29 30 56 54 60 54 3 0 14 -9 24 -20z"/>
<path d="M9240 6369 c-243 -18 -745 -103 -1505 -256 l-580 -117 -75 -75 -75
-76 87 -84 87 -84 53 11 c41 8 58 7 78 -3 14 -8 115 -91 225 -185 110 -94 205
-174 212 -177 6 -2 96 63 200 146 178 143 190 151 232 151 l43 0 -34 -37 c-35
-38 -409 -406 -417 -410 -2 -2 34 -42 80 -90 l84 -88 -58 -3 c-45 -2 -67 2
-94 18 l-35 20 -27 -22 c-74 -60 -370 -318 -376 -327 -3 -6 -2 -11 3 -11 48 0
1194 -124 1252 -135 29 -6 365 -41 487 -51 96 -8 86 -23 104 156 6 63 12 116
13 117 1 1 109 80 241 175 132 95 252 182 267 193 15 11 28 23 28 27 0 4 -107
88 -237 188 -312 236 -303 228 -303 276 0 21 -3 77 -7 123 l-6 84 -313 -7
c-371 -7 -566 -18 -969 -51 -346 -28 -555 -40 -555 -32 0 10 111 58 215 92
220 74 570 107 1378 131 l208 6 -6 38 -6 38 227 117 c280 144 386 204 378 216
-6 11 -353 10 -504 -2z m-433 -803 c114 -104 222 -204 238 -223 22 -24 36 -32
48 -27 9 3 17 10 17 15 0 21 38 6 94 -38 34 -26 64 -52 68 -58 4 -6 29 -26 56
-45 l50 -34 -119 -89 -118 -89 -98 78 c-54 43 -122 98 -151 123 l-53 44 32 26
32 27 -163 148 -163 147 -56 -53 c-31 -30 -81 -76 -111 -103 -30 -27 -106 -96
-168 -154 l-112 -105 122 -124 c68 -68 158 -155 200 -193 l77 -71 73 56 c93
71 154 124 148 128 -3 2 -19 16 -37 32 l-32 28 -46 -31 -47 -31 -56 49 c-32
27 -79 72 -107 101 l-50 51 40 37 c156 142 190 172 195 172 9 0 89 -57 126
-90 l36 -31 -19 -22 c-11 -12 -23 -27 -26 -33 -6 -10 138 -139 155 -139 3 0
10 -4 15 -9 5 -5 2 -6 -7 -1 -12 7 -13 6 -2 -6 7 -8 19 -14 27 -14 8 0 37 -18
64 -40 l50 -39 -32 -28 c-18 -15 -57 -47 -87 -70 -30 -24 -113 -88 -185 -144
-182 -140 -160 -145 -403 89 -103 100 -232 225 -287 279 l-100 98 40 37 c22
21 106 99 185 173 80 74 172 160 205 191 115 108 220 199 227 197 3 -2 100
-88 215 -192z m-897 41 c0 -9 -129 -107 -141 -107 -15 0 -132 85 -137 99 -2 5
60 10 137 10 78 1 141 0 141 -2z m152 -789 l81 -73 -31 -3 c-26 -3 -45 8 -111
60 -43 35 -84 71 -90 81 -11 16 -8 18 29 13 33 -4 55 -18 122 -78z m-222 3
c30 -27 53 -51 50 -53 -8 -7 -220 4 -219 11 1 6 100 89 109 90 3 1 30 -21 60
-48z"/>
<path d="M816 5819 c-58 -46 -19 -139 59 -139 70 0 104 96 49 139 -15 12 -39
21 -54 21 -15 0 -39 -9 -54 -21z"/>
<path d="M9372 5833 c-22 -9 -44 -63 -37 -94 16 -73 117 -81 153 -12 18 34 14
62 -13 88 -23 24 -69 32 -103 18z"/>
<path d="M2707 5229 c-41 -36 -45 -78 -12 -117 50 -59 139 -36 151 39 12 74
-83 127 -139 78z"/>
<path d="M7495 5239 c-33 -19 -45 -41 -45 -81 0 -49 30 -78 81 -78 53 0 89 32
89 79 0 62 -74 109 -125 80z"/>
<path d="M812 4647 c-47 -50 -12 -137 54 -137 73 0 113 90 61 138 -32 30 -87
29 -115 -1z"/>
<path d="M9362 4647 c-30 -32 -29 -87 1 -115 52 -49 137 -10 137 62 0 67 -92
102 -138 53z"/>
<path d="M2820 4539 c-52 -8 -219 -28 -1025 -119 -592 -67 -600 -69 -690 -107
-127 -53 -549 -267 -553 -280 -6 -20 96 -25 395 -20 312 5 362 11 778 93 288
56 417 93 640 181 113 45 527 242 544 259 6 6 -24 3 -89 -7z"/>
<path d="M7380 4546 c0 -10 332 -173 454 -223 256 -105 499 -175 831 -238 364
-69 421 -75 735 -74 286 1 343 5 344 24 1 12 -297 163 -498 253 -123 55 -150
64 -230 72 -50 4 -283 31 -518 59 -235 28 -563 67 -730 86 -167 18 -322 37
-345 41 -24 3 -43 4 -43 0z"/>
<path d="M3030 4222 c-234 -75 -311 -105 -305 -121 15 -40 94 -168 125 -204
l36 -40 32 17 c39 20 101 111 158 230 45 97 62 146 48 145 -5 0 -47 -12 -94
-27z"/>
<path d="M7160 4248 c0 -2 6 -24 14 -49 40 -130 176 -339 222 -339 7 0 34 26
59 58 46 57 130 191 123 196 -1 2 -91 33 -198 70 -173 59 -220 72 -220 64z"/>
<path d="M2468 4197 c-53 -19 -57 -22 -51 -46 20 -84 151 -342 215 -423 l29
-38 57 42 c31 23 58 43 60 44 2 1 -23 37 -54 80 -57 80 -108 175 -159 297 -15
37 -31 66 -34 66 -3 -1 -32 -11 -63 -22z"/>
<path d="M7741 4188 c-57 -150 -112 -252 -188 -350 l-44 -57 58 -46 c32 -25
61 -45 66 -45 12 0 110 155 155 245 36 74 92 215 92 235 0 9 -85 40 -112 40
-10 0 -22 -10 -27 -22z"/>
<path d="M2160 4073 c-139 -36 -468 -106 -677 -144 -101 -18 -188 -36 -195
-40 -16 -10 25 -135 113 -347 32 -78 59 -144 59 -147 0 -2 -55 -45 -122 -96
-277 -208 -393 -308 -331 -284 10 3 40 11 68 17 289 60 1062 305 1513 479 23
9 22 10 -32 83 -84 113 -152 226 -222 370 -36 72 -68 132 -72 133 -4 0 -50
-10 -102 -24z m25 -199 c8 -20 15 -42 15 -49 0 -11 -112 -44 -373 -109 -54
-13 -101 -27 -104 -30 -6 -6 55 -154 66 -160 3 -2 38 7 76 19 256 82 439 135
445 128 21 -24 50 -82 43 -86 -16 -9 -352 -117 -473 -151 -69 -20 -138 -40
-155 -46 -16 -5 -32 -6 -36 -2 -10 11 -118 265 -139 327 -14 42 -16 57 -7 60
7 2 100 22 207 45 107 22 236 51 285 64 125 34 132 33 150 -10z"/>
<path d="M8004 4063 c-43 -109 -137 -282 -221 -406 -52 -77 -92 -141 -90 -143
7 -7 231 -89 452 -166 432 -149 1079 -334 1138 -326 17 2 -8 26 -123 115 -206
159 -314 243 -322 251 -4 4 17 64 47 134 42 98 135 348 135 363 0 3 -136 31
-300 60 -80 15 -172 33 -205 40 -33 8 -150 35 -260 60 -110 25 -208 48 -218
51 -13 4 -21 -4 -33 -33z m258 -183 c68 -17 205 -48 306 -70 101 -21 186 -40
188 -43 6 -5 -83 -246 -121 -330 -20 -43 -31 -56 -43 -53 -10 3 -73 22 -142
41 -120 35 -347 105 -457 141 -29 10 -53 22 -53 26 0 5 11 26 25 48 23 36 27
38 52 30 16 -5 127 -39 248 -75 121 -36 227 -68 236 -71 13 -3 24 14 49 76 17
45 30 83 28 85 -2 2 -71 20 -153 40 -151 37 -327 85 -334 91 -5 5 33 94 41 94
4 0 62 -14 130 -30z"/>
<path d="M979 3711 c-21 -22 -29 -39 -29 -66 0 -45 45 -95 85 -95 39 0 83 30
95 64 32 93 -81 166 -151 97z"/>
<path d="M9202 3730 c-29 -12 -55 -73 -47 -111 15 -66 99 -90 154 -43 26 21
31 33 31 69 0 72 -67 113 -138 85z"/>
<path d="M3285 3537 c-121 -73 -260 -159 -308 -191 -75 -49 -86 -60 -75 -73 7
-8 80 -74 163 -146 82 -72 175 -154 205 -181 31 -28 75 -68 99 -88 l42 -38 90
187 90 187 -37 231 c-20 126 -40 233 -43 237 -4 4 -105 -52 -226 -125z m155
-162 c0 -108 -2 -117 -36 -197 -19 -45 -39 -86 -43 -91 -4 -4 -60 37 -126 90
l-119 96 40 35 c55 48 267 191 277 185 4 -2 7 -55 7 -118z"/>
<path d="M3317 3314 c-38 -28 -47 -40 -47 -64 0 -18 5 -30 13 -30 19 0 97 83
97 102 0 29 -14 27 -63 -8z"/>
<path d="M6776 3643 c-3 -16 -17 -102 -32 -193 -14 -91 -29 -185 -33 -210 -7
-41 -3 -54 48 -160 31 -63 71 -148 90 -187 l33 -73 42 38 c23 20 134 118 247
218 112 99 209 187 216 195 10 13 -12 31 -135 111 -145 95 -458 288 -466 288
-3 0 -7 -12 -10 -27z m196 -219 c57 -36 123 -82 148 -102 25 -20 47 -38 49
-39 5 -4 -64 -64 -161 -141 l-77 -62 -40 86 -41 86 2 119 c1 66 6 119 10 119
5 0 54 -30 110 -66z"/>
<path d="M6915 3327 c4 -33 21 -59 58 -84 34 -25 47 -22 47 11 0 23 -24 49
-72 79 -35 22 -36 22 -33 -6z"/>
<path d="M1454 2880 c-26 -10 -62 -55 -70 -86 -8 -33 13 -90 43 -114 41 -32
114 -28 156 10 41 36 52 78 32 125 -24 59 -100 90 -161 65z"/>
<path d="M8730 2872 c-40 -20 -60 -53 -60 -100 0 -71 44 -112 121 -112 64 0
119 51 119 110 0 39 -31 88 -65 104 -43 21 -72 20 -115 -2z"/>
<path d="M1702 2555 c-72 -32 -74 -137 -4 -178 29 -17 39 -18 71 -8 49 14 71
40 78 89 10 75 -72 130 -145 97z"/>
<path d="M8503 2555 c-64 -28 -80 -116 -30 -163 51 -48 130 -33 163 29 43 85
-44 173 -133 134z"/>
<path d="M1975 2290 c-31 -13 -64 -48 -71 -76 -10 -41 3 -96 31 -123 21 -22
35 -26 81 -26 50 0 58 3 85 33 55 62 32 155 -47 188 -37 16 -50 16 -79 4z"/>
<path d="M8223 2285 c-81 -35 -83 -169 -3 -210 104 -54 210 58 155 164 -15 29
-69 61 -102 61 -10 -1 -32 -7 -50 -15z"/>
<path d="M6290 1531 c0 -118 -1 -123 -26 -146 l-25 -23 39 -64 c78 -127 245
-383 258 -397 7 -8 17 -12 20 -8 8 7 -8 203 -33 403 l-16 130 -108 114 -109
114 0 -123z"/>
<path d="M3890 1529 c-72 -76 -106 -119 -108 -137 -1 -15 -11 -110 -22 -212
-25 -243 -29 -290 -19 -290 11 0 67 81 200 289 106 165 117 187 103 198 -9 7
-22 14 -28 16 -7 2 -11 47 -11 125 0 67 -2 122 -5 122 -3 0 -52 -50 -110 -111z"/>
<path d="M3144 1470 c-11 -4 -33 -23 -48 -41 -24 -29 -28 -39 -24 -81 11 -114
139 -154 213 -67 47 57 26 157 -40 185 -38 16 -69 17 -101 4z"/>
<path d="M7033 1460 c-42 -25 -53 -48 -53 -108 0 -84 64 -133 144 -111 97 27
119 167 34 219 -42 25 -84 25 -125 0z"/>
<path d="M4125 1139 c-21 -25 -25 -38 -20 -63 20 -95 155 -85 155 11 0 77 -86
110 -135 52z"/>
<path d="M6056 1147 c-32 -32 -34 -74 -5 -111 41 -52 124 -25 135 44 8 46 -18
79 -68 86 -30 5 -41 2 -62 -19z"/>
</g>
</svg>
